<svg width="1904" height="1852" viewBox="0 0 1904 1852" fill="none" xmlns="http://www.w3.org/2000/svg">
<g clip-path="url(#clip0_14_8)">
<path d="M164.332 447.545C164.332 447.545 167.089 445.609 168.621 444.963C179.344 440.768 191.598 450.127 195.275 461.747C198.951 473.366 196.194 485.953 193.743 497.572C174.748 584.394 142.273 676.702 149.626 766.75C153.915 820.005 181.795 888.429 221.316 922.964C291.78 984.287 384.609 889.72 349.99 809.031C334.365 772.56 308.937 738.348 315.983 695.421C322.417 655.4 346.926 631.516 380.627 664.76C417.391 701.231 469.779 760.941 448.027 831.624C428.113 896.498 364.083 952.98 323.642 1003.65C171.684 1194.4 167.395 1404.51 146.256 1641.42C139.822 1714.68 135.533 1725.98 135.533 1725.98C135.533 1725.98 103.058 1716.94 89.8845 1677.89C84.3699 1661.43 77.9362 1644.97 70.8898 1628.83C68.1325 1622.7 53.7332 1566.54 43.9295 1587.19C36.8831 1602.36 32.2876 1622.37 37.4958 1639.16C46.3804 1668.53 63.2306 1721.46 76.7107 1748.57C96.3182 1787.3 130.938 1838.62 220.09 1843.14C398.702 1852.18 575.169 1851.21 753.781 1849.92C810.459 1849.59 900.224 1815.38 943.116 1771.81C985.701 1728.24 899.612 1676.92 862.848 1705.32C830.373 1730.5 832.517 1709.84 832.517 1709.84C830.679 1545.56 862.235 1379.98 834.662 1216.35C815.361 1101.12 734.786 1024.63 698.022 918.445C680.559 868.095 671.981 817.745 671.981 790.311C671.981 642.812 873.264 603.436 947.711 513.71C947.711 513.71 1021.55 424.63 1036.86 372.021C1052.18 319.412 1065.05 220.971 1065.05 179.982C1065.05 138.992 1047.59 136.41 1071.48 104.457C1095.38 72.5041 1095.38 13.1172 1065.05 6.01658C994.585 -9.79841 994.585 4.40281 958.74 60.8849C950.162 74.7634 793.609 83.8005 750.411 77.0227C649.31 61.2077 538.712 56.3664 439.143 83.8005C324.561 115.753 248.582 222.262 166.476 305.533C120.215 352.655 60.7797 397.518 24.0157 456.583C-0.800035 495.313 -18.5693 550.182 -16.7311 596.013C-14.5865 648.299 36.8831 713.496 92.9482 677.67C109.186 667.342 117.151 646.685 121.747 626.997C134.308 571.161 128.793 509.837 155.141 459.81C157.592 455.292 160.655 450.45 164.638 447.223L164.332 447.545Z" fill="white"/>
<path d="M1079.45 1756.64C1081.59 1756.64 1083.74 1756 1085.88 1754.71C1086.19 1725.98 1078.84 1697.9 1072.71 1670.14C1044.83 1544.27 1039.93 1410.65 1067.81 1284.13C1081.29 1222.16 1102.73 1159.54 1134.29 1105C1169.21 1044.97 1240.9 975.252 1234.47 899.404C1228.04 823.557 1164.93 787.408 1111 755.456C1085.27 740.286 1060.15 718.661 1052.8 688.645C1041.46 643.137 1073.63 599.888 1089.56 555.67C1109.47 500.479 1104.57 440.447 1116.52 383.642C1120.2 365.89 1130.31 314.895 1150.53 309.085C1173.81 302.63 1196.17 338.456 1212.11 350.721C1283.18 403.653 1369.27 363.631 1436.06 323.609C1473.44 301.016 1496.41 317.154 1502.85 359.112C1509.89 404.621 1507.14 451.098 1511.12 496.929C1515.1 542.76 1528.58 588.591 1529.2 635.713C1529.81 694.778 1509.28 749.969 1459.65 780.953C1417.68 807.096 1328.83 814.52 1330.06 884.88C1331.9 974.929 1453.83 1032.38 1505.6 1088.86C1584.03 1174.39 1647.45 1276.06 1686.36 1388.06C1701.99 1433.24 1713.93 1480.36 1712.1 1528.45C1710.26 1580.74 1692.79 1631.09 1671.66 1678.54C1652.66 1721.46 1629.07 1764.39 1591.39 1790.53C1550.33 1818.93 1498.56 1823.13 1449.54 1825.71C1313.51 1833.13 1175.34 1835.39 1043.6 1798.92C1022.16 1792.79 999.181 1784.4 987.233 1764.71C975.284 1745.02 984.782 1711.46 1007.15 1710.49C1035.94 1709.2 1053.71 1759.22 1079.14 1756.64H1079.45ZM1129.39 1679.5C1129.39 1679.5 1131.22 1682.41 1132.45 1683.38C1141.03 1690.15 1151.45 1682.41 1151.45 1670.79C1151.45 1645.61 1141.03 1552.98 1155.12 1526.84C1169.21 1500.7 1203.83 1472.94 1214.25 1462.93C1224.67 1452.93 1258.06 1435.5 1257.14 1403.55C1256.22 1371.6 1254.38 1322.21 1227.42 1305.11C1200.46 1288 1202.61 1297.04 1180.55 1308.66C1158.49 1320.28 1135.82 1344.16 1133.68 1370.3C1131.53 1396.45 1126.02 1402.26 1125.1 1434.21C1124.18 1466.16 1115.6 1522.32 1116.52 1552.02C1117.74 1587.52 1119.58 1623.34 1124.18 1658.52C1125.1 1664.33 1125.71 1673.69 1128.77 1679.83L1129.39 1679.5Z" fill="white"/>
<path d="M1646.84 1722.11C1721.59 1720.81 1794.82 1702.74 1823.31 1621.73C1857.31 1525.22 1809.83 1424.85 1774.29 1336.74C1736.61 1243.14 1629.68 1016.89 1737.52 938.779C1780.72 907.472 1865.89 916.186 1871.1 985.901C1871.71 996.229 1872.63 1045.29 1872.63 1045.29" stroke="white" stroke-width="64.5674" stroke-miterlimit="10" stroke-linecap="round"/>
</g>
<defs>
<clipPath id="clip0_14_8">
<rect width="1920" height="1851" fill="white" transform="translate(-16.7311 0.530518)"/>
</clipPath>
</defs>
</svg>
