<?xml version="1.0" encoding="utf-8"?>
<!-- Generator: Adobe Illustrator 28.0.0, SVG Export Plug-In . SVG Version: 6.00 Build 0)  -->
<svg version="1.1" id="Layer_1" xmlns="http://www.w3.org/2000/svg" xmlns:xlink="http://www.w3.org/1999/xlink" x="0px" y="0px"
	 viewBox="0 0 908 743" style="enable-background:new 0 0 908 743;" xml:space="preserve">
<style type="text/css">
	.st0{fill:none;stroke:#FFCECE;stroke-width:4;stroke-linecap:round;stroke-miterlimit:10;}
	.st1{fill:none;stroke:#FFCECE;stroke-width:4;stroke-linecap:round;stroke-miterlimit:10;stroke-dasharray:12.0398,12.0398;}
</style>
<path class="st0" d="M732,104.1c0.1-2.1,0.2-4.1,0.2-6"/>
<path class="st1" d="M731.1,86.1c-11.8-62.1-115.6-43.5-159.9-46c-22.2-1.2-60.7-0.5-78.1-17C476.4,7.3,411.6,0.5,325.6,8.4
	c-25.3,2.3-56.8,5-76.3,23.8c-8.4,8.1-12.3,18.2-18.2,28C208.2,97.7,166,97.4,127.3,99.7c-26.2,1.6-55.4-1.4-79.5,11.5
	c-29,15.6-36.7,50.9-36.2,81.8c1.2,74.7,7.3,149.2,12.1,223.7c1.8,28.5-1.5,62.1,10.9,88.7c11.8,25.1,41.4,37.1,67.2,39.9
	c46,5,94.6,6.6,140.5-0.3c38.7-5.8,82.3-25,119.3-2.6c42.2,25.5,83.7,50.6,134.8,47.3c50.9-3.3,85.7-43.4,114.5-82.6
	c19.4-26.3,45-35.2,75.1-21.5c21.5,9.8,45.8,38.3,19,57.5c-32.2,23.1-51.2-20-16.6-18.8c66.3,2.2,150.7,26.2,187.6,87
	c21.4,35.1,23.5,76.7,16.9,116.5"/>
<path class="st0" d="M891.9,733.8c-0.4,2-0.8,3.9-1.2,5.9"/>
</svg>
