<?xml version="1.0" encoding="utf-8"?>
<!-- Generator: Adobe Illustrator 28.0.0, SVG Export Plug-In . SVG Version: 6.00 Build 0)  -->
<svg version="1.1" id="Layer_1" xmlns="http://www.w3.org/2000/svg" xmlns:xlink="http://www.w3.org/1999/xlink" x="0px" y="0px"
	 viewBox="0 0 908 743" style="enable-background:new 0 0 908 743;" xml:space="preserve">
<style type="text/css">
	.st0{fill:none;stroke:#FFCECE;stroke-width:4;stroke-linecap:round;stroke-miterlimit:10;}
	.st1{fill:none;stroke:#FFCECE;stroke-width:4;stroke-linecap:round;stroke-miterlimit:10;stroke-dasharray:12.0398,12.0398;}
</style>
<path class="st0" d="M175.9,103.2c-0.1-2.1-0.2-4.1-0.2-6"/>
<path class="st1" d="M176.8,85.2c11.8-62.1,115.6-43.5,159.9-46c22.2-1.2,60.7-0.5,78.1-17C431.6,6.4,496.4-0.4,582.4,7.6
	c25.3,2.3,56.8,5,76.3,23.8c8.4,8.1,12.3,18.2,18.2,28c22.9,37.5,65.1,37.2,103.7,39.5c26.2,1.6,55.4-1.4,79.5,11.5
	c29,15.6,36.7,50.9,36.2,81.8c-1.2,74.7-7.3,149.2-12.1,223.7c-1.8,28.5,1.5,62.1-10.9,88.7c-11.8,25.1-41.4,37.1-67.2,39.9
	c-46,5-94.6,6.6-140.5-0.3c-38.7-5.8-82.3-25-119.3-2.6c-42.2,25.5-83.7,50.6-134.8,47.3c-50.9-3.3-85.7-43.4-114.5-82.6
	c-19.4-26.3-45-35.2-75.1-21.5c-21.5,9.8-45.8,38.3-19,57.5c32.2,23.1,51.2-20,16.6-18.8c-66.3,2.2-150.7,26.2-187.6,87
	C10.5,645.6,8.3,687.2,15,727"/>
<path class="st0" d="M16,732.9c0.4,2,0.8,3.9,1.2,5.9"/>
</svg>
