<svg width="69" height="70" viewBox="0 0 69 70" fill="none" xmlns="http://www.w3.org/2000/svg">
<path d="M8.78589 56.0097C8.78589 60.8085 12.5763 64.7344 17.2095 64.7344H51.9619C56.5952 64.7344 60.3856 60.5914 60.3856 55.7905V14.0592C60.3856 11.2642 56.9671 9.97422 55.0429 11.9092L45.2819 21.7347H24.1862L14.1609 11.9092C12.2259 9.97422 8.78589 11.2642 8.78589 14.0592V56.0097Z" fill="#FFB02E"/>
<path d="M19.5359 23.7276L13.516 29.3176C12.441 30.3926 10.506 29.5326 10.506 28.0276V16.8477C10.506 15.5577 12.441 14.6977 13.516 15.7727L19.5359 21.3627C20.1809 22.0077 20.1809 23.0826 19.5359 23.7276ZM49.7432 23.7276L55.7632 29.3176C56.8382 30.3926 58.7732 29.5326 58.7732 28.0276V16.8477C58.7732 15.5577 56.8382 14.6977 55.7632 15.7727L49.7432 21.3627C49.0983 22.0077 49.0983 23.0826 49.7432 23.7276Z" fill="#FF822D"/>
<path d="M36.8282 43.2344H32.3433C32.1306 43.2344 31.9227 43.2976 31.7459 43.4158C31.5691 43.5341 31.4313 43.7021 31.3501 43.8987C31.2688 44.0953 31.2477 44.3116 31.2894 44.5201C31.3311 44.7287 31.4338 44.9202 31.5844 45.0705L33.8268 47.3108C34.0284 47.5123 34.3018 47.6255 34.5868 47.6255C34.8719 47.6255 35.1453 47.5123 35.3469 47.3108L37.5893 45.0705C37.74 44.9201 37.8427 44.7284 37.8844 44.5196C37.926 44.3108 37.9047 44.0944 37.8232 43.8977C37.7417 43.7011 37.6036 43.533 37.4264 43.4149C37.2493 43.2968 37.0411 43.234 36.8282 43.2344Z" fill="#F70A8D"/>
<path d="M6.04255 43.3485C5.91621 43.284 5.77834 43.2451 5.6369 43.2341C5.49546 43.2231 5.35324 43.2402 5.21843 43.2844C5.08363 43.3286 4.95891 43.3991 4.85147 43.4917C4.74403 43.5844 4.656 43.6974 4.59244 43.8242C4.52888 43.9511 4.49105 44.0892 4.48114 44.2307C4.47123 44.3723 4.48943 44.5144 4.5347 44.6488C4.57996 44.7833 4.65139 44.9074 4.74487 45.0142C4.83835 45.1209 4.95203 45.208 5.07936 45.2706L13.6793 49.5706C13.8056 49.6351 13.9435 49.674 14.085 49.685C14.2264 49.696 14.3686 49.6789 14.5034 49.6347C14.6382 49.5905 14.7629 49.52 14.8704 49.4274C14.9778 49.3347 15.0659 49.2217 15.1294 49.0949C15.193 48.968 15.2308 48.8299 15.2407 48.6884C15.2506 48.5468 15.2324 48.4047 15.1872 48.2703C15.1419 48.1358 15.0705 48.0117 14.977 47.9049C14.8835 47.7982 14.7698 47.7111 14.6425 47.6485L6.04255 43.3485ZM6.04255 58.1705C5.91621 58.2351 5.77834 58.274 5.6369 58.285C5.49546 58.296 5.35324 58.2789 5.21843 58.2347C5.08363 58.1904 4.95891 58.12 4.85147 58.0273C4.74403 57.9347 4.656 57.8217 4.59244 57.6948C4.52888 57.568 4.49105 57.4298 4.48114 57.2883C4.47123 57.1468 4.48943 57.0047 4.5347 56.8702C4.57996 56.7358 4.65139 56.6116 4.74487 56.5049C4.83835 56.3982 4.95203 56.311 5.07936 56.2484L13.6793 51.9485C13.8056 51.8839 13.9435 51.845 14.085 51.834C14.2264 51.823 14.3686 51.8401 14.5034 51.8843C14.6382 51.9286 14.7629 51.999 14.8704 52.0917C14.9778 52.1843 15.0659 52.2973 15.1294 52.4242C15.193 52.551 15.2308 52.6892 15.2407 52.8307C15.2506 52.9722 15.2324 53.1143 15.1872 53.2488C15.1419 53.3832 15.0705 53.5074 14.977 53.6141C14.8835 53.7208 14.7698 53.808 14.6425 53.8706L6.04255 58.1705ZM64.5717 43.828C64.4439 43.5736 64.2205 43.3804 63.9505 43.2905C63.6805 43.2006 63.3858 43.2215 63.1312 43.3485L54.5312 47.6485C54.4005 47.7089 54.2833 47.7949 54.1865 47.9014C54.0896 48.008 54.0152 48.1329 53.9676 48.2687C53.9199 48.4046 53.9001 48.5486 53.9092 48.6923C53.9183 48.836 53.9561 48.9764 54.0205 49.1051C54.0849 49.2339 54.1745 49.3484 54.284 49.4419C54.3935 49.5354 54.5206 49.6059 54.6579 49.6494C54.7951 49.6928 54.9397 49.7082 55.0831 49.6946C55.2264 49.6811 55.3655 49.6389 55.4923 49.5706L64.0922 45.2706C64.3465 45.1429 64.5398 44.9195 64.6297 44.6495C64.7196 44.3794 64.6987 44.0848 64.5717 43.8301M63.1312 58.1705C63.2579 58.2389 63.397 58.281 63.5404 58.2946C63.6837 58.3081 63.8283 58.2927 63.9655 58.2493C64.1028 58.2059 64.23 58.1354 64.3394 58.0419C64.4489 57.9484 64.5385 57.8339 64.6029 57.7051C64.6673 57.5763 64.7051 57.4359 64.7142 57.2923C64.7233 57.1486 64.7035 57.0045 64.6558 56.8687C64.6082 56.7328 64.5338 56.6079 64.437 56.5014C64.3401 56.3948 64.2229 56.3088 64.0922 56.2484L55.4923 51.9485C55.3659 51.8839 55.228 51.845 55.0866 51.834C54.9452 51.823 54.8029 51.8401 54.6681 51.8843C54.5333 51.9286 54.4086 51.999 54.3012 52.0917C54.1937 52.1843 54.1057 52.2973 54.0421 52.4242C53.9786 52.551 53.9408 52.6892 53.9308 52.8307C53.9209 52.9722 53.9391 53.1143 53.9844 53.2488C54.0297 53.3832 54.1011 53.5074 54.1946 53.6141C54.2881 53.7208 54.4017 53.808 54.5291 53.8706L63.1312 58.1705Z" fill="#FF6723"/>
<path d="M34.5857 49.9124C33.4312 51.0712 31.4532 51.8344 29.2108 51.8344C26.992 51.8344 25.0355 51.0884 23.8745 49.9511C24.1325 51.5076 25.8697 59.3594 34.5857 59.3594C43.3018 59.3594 45.0368 51.5076 45.297 49.9511C44.136 51.0884 42.1795 51.8344 39.9607 51.8344C37.7161 51.8344 35.7403 51.0712 34.5857 49.9124Z" fill="#BB1D80"/>
<path d="M23.8359 42.1593C23.8359 41.7939 23.9542 41.222 24.2788 40.7726C24.5626 40.377 25.0463 40.0094 25.9859 40.0094C26.9254 40.0094 27.4092 40.3749 27.693 40.7726C28.0155 41.222 28.1359 41.7939 28.1359 42.1593C28.1359 42.4445 28.2491 42.7179 28.4507 42.9195C28.6523 43.1211 28.9258 43.2343 29.2109 43.2343C29.496 43.2343 29.7694 43.1211 29.971 42.9195C30.1726 42.7179 30.2859 42.4445 30.2859 42.1593C30.2859 41.4499 30.0816 40.4093 29.4388 39.5149C28.7551 38.5689 27.6263 37.8594 25.9859 37.8594C24.3454 37.8594 23.2167 38.5689 22.533 39.5149C21.888 40.4093 21.6859 41.4499 21.6859 42.1593C21.6859 42.4445 21.7992 42.7179 22.0008 42.9195C22.2024 43.1211 22.4758 43.2343 22.7609 43.2343C23.046 43.2343 23.3194 43.1211 23.521 42.9195C23.7226 42.7179 23.8359 42.4445 23.8359 42.1593ZM41.0358 42.1593C41.0358 41.7939 41.154 41.222 41.4787 40.7726C41.7625 40.377 42.2462 40.0094 43.1858 40.0094C44.1253 40.0094 44.6091 40.3749 44.8929 40.7726C45.2154 41.222 45.3358 41.7939 45.3358 42.1593C45.3358 42.4445 45.449 42.7179 45.6506 42.9195C45.8522 43.1211 46.1257 43.2343 46.4108 43.2343C46.6959 43.2343 46.9693 43.1211 47.1709 42.9195C47.3725 42.7179 47.4858 42.4445 47.4858 42.1593C47.4858 41.4499 47.2815 40.4093 46.6387 39.5149C45.955 38.5689 44.8262 37.8594 43.1858 37.8594C41.5453 37.8594 40.4166 38.5689 39.7329 39.5149C39.0879 40.4093 38.8858 41.4499 38.8858 42.1593C38.8858 42.4445 38.9991 42.7179 39.2007 42.9195C39.4023 43.1211 39.6757 43.2343 39.9608 43.2343C40.2459 43.2343 40.5193 43.1211 40.7209 42.9195C40.9225 42.7179 41.0358 42.4445 41.0358 42.1593Z" fill="#402A32"/>
</svg>
