<svg width="70" height="70" viewBox="0 0 70 70" fill="none" xmlns="http://www.w3.org/2000/svg">
<g clip-path="url(#clip0_59_40)">
<path d="M9.39978 25.4817C9.39978 23.2008 10.3058 21.0134 11.9186 19.4006C13.5314 17.7878 15.7189 16.8817 17.9997 16.8817H52.3995C54.6804 16.8817 56.8678 17.7878 58.4806 19.4006C60.0934 21.0134 60.9995 23.2008 60.9995 25.4817V55.5815C60.9995 57.8623 60.0934 60.0498 58.4806 61.6626C56.8678 63.2754 54.6804 64.1814 52.3995 64.1814H17.9997C15.7189 64.1814 13.5314 63.2754 11.9186 61.6626C10.3058 60.0498 9.39978 57.8623 9.39978 55.5815V25.4817Z" fill="#F3C07B"/>
<path d="M52.535 53.096C52.535 43.4748 43.2621 40.4648 35.3351 40.4648C26.4664 40.4648 17.9998 43.821 17.9998 53.096C17.9998 61.5885 27.2726 68.8834 35.3351 68.8834C45.01 68.8834 52.535 58.873 52.535 53.096Z" fill="#FFDEA7"/>
<path d="M28.7325 59.1417L35.1997 54.3042L41.6669 59.1417V64.1812C41.6669 67.7438 38.7622 70.6312 35.1997 70.6312C33.4873 70.6318 31.8446 69.953 30.6322 68.7437C29.4197 67.5345 28.7365 65.8936 28.7325 64.1812V59.1417Z" fill="#CA0B4A"/>
<path d="M26.0107 19.1756L10.3158 41.3098C8.80003 43.4468 5.4353 42.374 5.4353 39.7553V24.6087C5.4353 22.0427 6.45462 19.5818 8.26903 17.7674C10.0834 15.953 12.5443 14.9337 15.1102 14.9337H23.8177C24.3107 14.9336 24.7943 15.0691 25.2155 15.3254C25.6367 15.5818 25.9793 15.949 26.2057 16.387C26.4321 16.825 26.5337 17.3168 26.4993 17.8087C26.4649 18.3005 26.2959 18.7734 26.0107 19.1756ZM44.3221 19.1756L60.017 41.3098C61.5306 43.4468 64.8975 42.374 64.8975 39.7553V24.6087C64.8975 22.0427 63.8782 19.5818 62.0638 17.7674C60.2494 15.953 57.7885 14.9337 55.2226 14.9337H46.5151C46.0221 14.9336 45.5385 15.0691 45.1173 15.3254C44.6961 15.5818 44.3535 15.949 44.1271 16.387C43.9007 16.825 43.7991 17.3168 43.8335 17.8087C43.8679 18.3005 44.0369 18.7734 44.3221 19.1756Z" fill="#6D4534"/>
<path d="M26.5997 34.0816C26.5997 33.5114 26.8262 32.9646 27.2294 32.5614C27.6326 32.1582 28.1795 31.9316 28.7497 31.9316C29.3199 31.9316 29.8668 32.1582 30.27 32.5614C30.6732 32.9646 30.8997 33.5114 30.8997 34.0816V36.2316C30.8997 36.8018 30.6732 37.3487 30.27 37.7519C29.8668 38.1551 29.3199 38.3816 28.7497 38.3816C28.1795 38.3816 27.6326 38.1551 27.2294 37.7519C26.8262 37.3487 26.5997 36.8018 26.5997 36.2316V34.0816ZM39.4997 34.0816C39.4997 33.5114 39.7262 32.9646 40.1294 32.5614C40.5326 32.1582 41.0794 31.9316 41.6496 31.9316C42.2199 31.9316 42.7667 32.1582 43.1699 32.5614C43.5731 32.9646 43.7996 33.5114 43.7996 34.0816V36.2316C43.7996 36.8018 43.5731 37.3487 43.1699 37.7519C42.7667 38.1551 42.2199 38.3816 41.6496 38.3816C41.0794 38.3816 40.5326 38.1551 40.1294 37.7519C39.7262 37.3487 39.4997 36.8018 39.4997 36.2316V34.0816ZM37.6614 42.6816H32.6799C31.4243 42.6816 30.2569 44.436 31.3082 45.8485C32.022 46.8074 33.8151 48.7252 35.2663 48.7252C36.7176 48.7252 38.4204 46.8074 39.089 45.8485C40.2479 44.0339 38.6913 42.7074 37.6614 42.6816ZM36.2747 50.2409C36.2747 49.9558 36.1614 49.6824 35.9598 49.4808C35.7582 49.2792 35.4848 49.1659 35.1997 49.1659H35.176C34.8909 49.1659 34.6175 49.2792 34.4159 49.4808C34.2143 49.6824 34.101 49.9558 34.101 50.2409C34.101 50.4172 34.1046 50.5921 34.1118 50.7655C33.8624 55.5385 30.2289 57.6971 27.7414 57.6971C27.4563 57.6971 27.1828 57.8103 26.9812 58.0119C26.7796 58.2135 26.6664 58.487 26.6664 58.7721C26.6664 59.0572 26.7796 59.3306 26.9812 59.5322C27.1828 59.7338 27.4563 59.8471 27.7414 59.8471C30.345 59.8471 33.5463 58.2432 35.1868 55.0268C36.8294 58.2432 40.0307 59.8471 42.6322 59.8471C42.9173 59.8471 43.1907 59.7338 43.3923 59.5322C43.5939 59.3306 43.7072 59.0572 43.7072 58.7721C43.7072 58.487 43.5939 58.2135 43.3923 58.0119C43.1907 57.8103 42.9173 57.6971 42.6322 57.6971C40.1468 57.6971 36.5133 55.5385 36.2639 50.7655C36.2711 50.5935 36.2747 50.4187 36.2747 50.2409Z" fill="#212121"/>
</g>
<defs>
<clipPath id="clip0_59_40">
<rect width="68.7996" height="68.7996" fill="white" transform="translate(0.799927 0.234619)"/>
</clipPath>
</defs>
</svg>
