<svg width="167" height="56" viewBox="0 0 167 56" fill="none" xmlns="http://www.w3.org/2000/svg">
<path d="M57.0648 15.8116C49.3614 15.8251 43.4453 21.7739 43.4665 29.4851C43.4878 37.1615 49.4502 43.0582 57.1864 43.0389C64.8802 43.0215 70.8271 37.0456 70.7962 29.3635C70.7653 21.6813 64.8049 15.7961 57.0648 15.8116ZM60.1029 37.0148C57.2192 38.2983 54.4918 37.7868 52.1235 35.7215C49.0564 33.0424 48.5507 27.8965 50.948 24.4492C51.607 23.4832 52.4834 22.6853 53.5068 22.1195C54.5301 21.5537 55.6719 21.2358 56.8404 21.1913C58.0089 21.1468 59.1716 21.377 60.235 21.8634C61.2984 22.3497 62.2329 23.0787 62.9635 23.9917C64.166 25.4664 64.7914 27.3348 64.7894 30.0873C64.6755 32.8706 63.3244 35.5787 60.1029 37.0148Z" fill="#DB4437"/>
<path d="M86.811 15.8018C79.0574 15.8134 73.1066 21.7622 73.1278 29.5062C73.1432 37.1478 79.1365 43.0523 86.865 43.0426C94.5298 43.033 100.483 37.1131 100.49 29.5004C100.496 21.7391 94.5549 15.7921 86.811 15.8018ZM85.8227 37.5898C82.9062 37.2636 80.4182 35.042 79.509 31.9633C78.3509 28.0334 79.9916 23.7851 83.325 22.0614C88.1621 19.5521 93.8427 22.7505 94.414 28.2959C94.4526 28.682 94.4603 29.068 94.4661 29.1761C94.4642 34.4996 90.6096 38.1264 85.8227 37.5898Z" fill="#F4B400"/>
<path d="M148.456 33.5307C154.468 31.0408 160.485 28.5489 166.611 26.0145C166.14 24.9336 165.775 23.9705 165.316 23.0536C161.857 16.186 154.418 13.7597 147.989 17.5062C143.771 19.9653 141.889 23.8913 141.619 28.6512C141.057 38.9469 150.851 45.9245 160.317 41.9811C162.803 40.9446 164.756 39.2383 166.32 37.0031L161.687 33.9341C157.877 39.5896 150.301 38.306 148.456 33.5307ZM152.837 21.3261C155.559 20.554 158.371 21.6311 159.512 23.9705L147.442 28.989C147.143 25.5494 149.498 22.2719 152.837 21.3261Z" fill="#DB4437"/>
<path d="M41.2776 19.9669H40.1774C34.549 19.9669 28.9205 19.9669 23.2921 19.9669C22.9408 19.9669 22.5914 20.0113 22.2401 20.0345H22.0471C21.993 20.0654 21.8946 20.0943 21.8946 20.1271C21.8695 21.8991 21.8464 23.6729 21.8599 25.4468C21.8599 25.5298 22.2034 25.6089 22.3868 25.69C22.6081 25.7239 22.831 25.7465 23.0547 25.7575C27.2239 25.7575 31.3944 25.7575 35.5662 25.7575C35.2728 29.4249 33.6939 32.3626 30.7137 34.5689C24.5235 39.155 12.5196 38.3694 8.08791 28.2629C5.51882 22.4048 6.26774 16.7454 10.435 11.8273C14.5425 6.97672 20.9546 5.28393 26.7915 7.41294C28.7449 8.12518 30.5071 9.35471 32.2385 10.2851L36.3035 6.47679C36.3035 6.47679 36.0101 6.25868 35.8962 6.15252C28.4766 -0.722841 17.0826 -1.13204 8.7519 5.18742C-1.25617 12.7866 -2.48377 27.1473 6.16351 36.252C11.2554 41.6122 17.5941 43.7199 24.8864 42.9092C32.9739 42.0098 39.2741 36.4392 41.0499 28.7455C41.7295 25.8662 41.807 22.8776 41.2776 19.9669Z" fill="#4285F4"/>
<path d="M128.941 16.7015H123.326C123.296 17.3887 123.269 18.0334 123.234 18.7977L122.049 17.8983L120.697 16.9949C118.157 15.5801 115.472 15.4894 112.751 16.2557C107.561 17.7149 103.553 22.3744 103.017 27.7017C102.42 33.6023 104.669 38.2194 109.738 41.3231C113.878 43.8575 119.541 43.7783 123.018 40.165C123.047 40.1361 123.131 40.165 123.211 40.165C123.211 41.2845 123.307 42.4079 123.193 43.5081C122.855 46.745 121.126 48.8412 118.277 49.6152C115.237 50.4414 112.201 49.4531 110.35 46.9979C109.908 46.4188 109.553 45.7645 109.114 45.0677L104.011 47.1909C106.887 54.0894 114.415 56.95 121.269 54.3326L124.465 52.4854C124.475 52.488 124.485 52.4884 124.496 52.4867C124.506 52.4851 124.515 52.4813 124.524 52.4756C124.532 52.47 124.54 52.4626 124.545 52.454C124.551 52.4454 124.554 52.4357 124.556 52.4256L124.734 52.2615L124.927 52.0685L125.579 51.3872L125.569 51.364C126.06 50.7405 126.629 50.1634 127.023 49.484C128.445 47.0307 128.976 44.3362 128.978 41.5239C128.978 33.4865 128.978 25.4485 128.978 17.4099C128.984 17.1976 128.959 16.9776 128.941 16.7015ZM122.969 33.1796C121.661 36.3374 118.833 37.9588 115.515 37.6056C112.461 37.2813 109.802 34.7585 109.112 31.4984C108.968 30.8132 108.919 30.1048 108.867 29.6493C108.981 26.4239 110.06 23.9533 112.631 22.3049C113.392 21.8034 114.244 21.4581 115.139 21.2891C116.034 21.1202 116.954 21.131 117.845 21.3208C118.736 21.5107 119.58 21.8758 120.329 22.395C121.077 22.9142 121.715 23.5771 122.205 24.3451C124.01 27.1323 124.232 30.1318 122.969 33.1796Z" fill="#4285F4"/>
<path d="M133.018 2.18799V42.1778H138.905V2.18799H133.018Z" fill="#0F9D58"/>
</svg>
