<svg width="60" height="61" viewBox="0 0 60 61" fill="none" xmlns="http://www.w3.org/2000/svg">
<path d="M22.5 3.39209V20.8921L5 50.8921V58.3921H55V50.8921L37.5 20.8921V3.39209M45 33.3921C27.5 25.8921 30 43.3921 15 35.8921M15 3.39209H45M37.5 45.8921C38.163 45.8921 38.7989 45.6287 39.2678 45.1599C39.7366 44.691 40 44.0551 40 43.3921C40 42.729 39.7366 42.0932 39.2678 41.6243C38.7989 41.1555 38.163 40.8921 37.5 40.8921C36.837 40.8921 36.2011 41.1555 35.7322 41.6243C35.2634 42.0932 35 42.729 35 43.3921C35 44.0551 35.2634 44.691 35.7322 45.1599C36.2011 45.6287 36.837 45.8921 37.5 45.8921ZM22.5 50.8921C23.163 50.8921 23.7989 50.6287 24.2678 50.1599C24.7366 49.691 25 49.0551 25 48.3921C25 47.729 24.7366 47.0932 24.2678 46.6243C23.7989 46.1555 23.163 45.8921 22.5 45.8921C21.837 45.8921 21.2011 46.1555 20.7322 46.6243C20.2634 47.0932 20 47.729 20 48.3921C20 49.0551 20.2634 49.691 20.7322 50.1599C21.2011 50.6287 21.837 50.8921 22.5 50.8921Z" stroke="#1872D9" stroke-width="3.11997"/>
</svg>
