<svg width="60" height="61" viewBox="0 0 60 61" fill="none" xmlns="http://www.w3.org/2000/svg">
<path d="M56.182 29.6889L52.3336 9.06395C52.2396 8.56121 52.0437 8.08301 51.758 7.65878C51.4723 7.23454 51.1028 6.87323 50.6724 6.59707C50.2419 6.3209 49.7594 6.13571 49.2547 6.0529C48.75 5.97009 48.2337 5.99139 47.7375 6.11551L47.6648 6.13661L35.3555 9.76707H24.6445L12.3352 6.14832L12.2625 6.12723C11.7663 6.00311 11.25 5.98181 10.7453 6.06462C10.2406 6.14743 9.75815 6.33262 9.32765 6.60878C8.89716 6.88495 8.52771 7.24626 8.24202 7.6705C7.95633 8.09473 7.76044 8.57292 7.66641 9.07567L3.81797 29.6889C3.6534 30.5145 3.77556 31.3715 4.16424 32.1182C4.55292 32.8648 5.18484 33.4565 5.95547 33.7952C6.44909 34.0213 6.98522 34.1395 7.52813 34.1421C8.17795 34.1415 8.81573 33.9667 9.375 33.6358V43.5171C9.375 46.0035 10.3627 48.3881 12.1209 50.1462C13.879 51.9044 16.2636 52.8921 18.75 52.8921H41.25C43.7364 52.8921 46.121 51.9044 47.8791 50.1462C49.6373 48.3881 50.625 46.0035 50.625 43.5171V33.6382C51.1836 33.9687 51.8205 34.1435 52.4695 34.1444C53.0131 34.1429 53.55 34.0255 54.0445 33.7999C54.8161 33.461 55.4487 32.8686 55.8374 32.1209C56.2262 31.3733 56.3478 30.5152 56.182 29.6889ZM7.5 30.3921L11.3508 9.76707L21.2109 12.6663L7.5 30.3921ZM41.25 49.1421H31.875V46.1679L35.0766 42.9686C35.4284 42.6168 35.626 42.1396 35.626 41.6421C35.626 41.1445 35.4284 40.6673 35.0766 40.3155C34.7247 39.9637 34.2476 39.766 33.75 39.766C33.2524 39.766 32.7753 39.9637 32.4234 40.3155L30 42.7413L27.5766 40.3155C27.2247 39.9637 26.7476 39.766 26.25 39.766C25.7524 39.766 25.2753 39.9637 24.9234 40.3155C24.5716 40.6673 24.374 41.1445 24.374 41.6421C24.374 42.1396 24.5716 42.6168 24.9234 42.9686L28.125 46.1679V49.1421H18.75C17.2582 49.1421 15.8274 48.5494 14.7725 47.4946C13.7176 46.4397 13.125 45.0089 13.125 43.5171V29.246L25.2938 13.5171H34.7039L46.875 29.246V43.5171C46.875 45.0089 46.2824 46.4397 45.2275 47.4946C44.1726 48.5494 42.7418 49.1421 41.25 49.1421ZM52.5 30.3921L38.7891 12.6663L48.6492 9.76707L52.5 30.3921ZM24.375 33.2046C24.375 33.7608 24.2101 34.3046 23.901 34.7671C23.592 35.2296 23.1527 35.5901 22.6388 35.803C22.1249 36.0159 21.5594 36.0716 21.0138 35.963C20.4682 35.8545 19.9671 35.5866 19.5738 35.1933C19.1804 34.8 18.9126 34.2988 18.804 33.7533C18.6955 33.2077 18.7512 32.6422 18.9641 32.1283C19.177 31.6144 19.5374 31.1751 20 30.8661C20.4625 30.557 21.0062 30.3921 21.5625 30.3921C22.3084 30.3921 23.0238 30.6884 23.5512 31.2158C24.0787 31.7433 24.375 32.4587 24.375 33.2046ZM41.25 33.2046C41.25 33.7608 41.0851 34.3046 40.776 34.7671C40.467 35.2296 40.0277 35.5901 39.5138 35.803C38.9999 36.0159 38.4344 36.0716 37.8888 35.963C37.3432 35.8545 36.8421 35.5866 36.4488 35.1933C36.0554 34.8 35.7876 34.2988 35.679 33.7533C35.5705 33.2077 35.6262 32.6422 35.8391 32.1283C36.052 31.6144 36.4124 31.1751 36.875 30.8661C37.3375 30.557 37.8812 30.3921 38.4375 30.3921C39.1834 30.3921 39.8988 30.6884 40.4262 31.2158C40.9537 31.7433 41.25 32.4587 41.25 33.2046Z" fill="#1872D9"/>
</svg>
