<svg width="60" height="61" viewBox="0 0 60 61" fill="none" xmlns="http://www.w3.org/2000/svg">
<path d="M27.3 26.4395C27.3 25.9422 27.1025 25.4653 26.7509 25.1136C26.3992 24.762 25.9223 24.5645 25.425 24.5645C24.9278 24.5645 24.4509 24.762 24.0992 25.1136C23.7476 25.4653 23.55 25.9422 23.55 26.4395V39.347C23.55 39.8442 23.7476 40.3211 24.0992 40.6728C24.4509 41.0244 24.9278 41.222 25.425 41.222C25.9223 41.222 26.3992 41.0244 26.7509 40.6728C27.1025 40.3211 27.3 39.8442 27.3 39.347V34.767H32.7V39.347C32.7 39.8442 32.8976 40.3211 33.2492 40.6728C33.6009 41.0244 34.0778 41.222 34.575 41.222C35.0723 41.222 35.5492 41.0244 35.9009 40.6728C36.2525 40.3211 36.45 39.8442 36.45 39.347V26.4395C36.45 25.9422 36.2525 25.4653 35.9009 25.1136C35.5492 24.762 35.0723 24.5645 34.575 24.5645C34.0778 24.5645 33.6009 24.762 33.2492 25.1136C32.8976 25.4653 32.7 25.9422 32.7 26.4395V31.017H27.3V26.4395Z" fill="#1872D9"/>
<path fill-rule="evenodd" clip-rule="evenodd" d="M33.375 9.65186C31.375 8.15186 28.625 8.15186 26.625 9.65186L10.375 21.8394C9.6764 22.3633 9.10938 23.0427 8.71885 23.8238C8.32832 24.6048 8.125 25.4661 8.125 26.3394V46.6419C8.125 48.1337 8.71763 49.5644 9.77252 50.6193C10.8274 51.6742 12.2582 52.2669 13.75 52.2669H46.25C47.7418 52.2669 49.1726 51.6742 50.2275 50.6193C51.2824 49.5644 51.875 48.1337 51.875 46.6419V26.3419C51.875 25.4686 51.6717 24.6073 51.2812 23.8263C50.8906 23.0452 50.3236 22.3658 49.625 21.8419L33.375 9.65186ZM28.875 12.6519C29.1996 12.4084 29.5943 12.2769 30 12.2769C30.4057 12.2769 30.8004 12.4084 31.125 12.6519L47.375 24.8394C47.6079 25.014 47.7969 25.2405 47.9271 25.5008C48.0572 25.7612 48.125 26.0483 48.125 26.3394V46.6419C48.125 47.1391 47.9275 47.616 47.5758 47.9677C47.2242 48.3193 46.7473 48.5169 46.25 48.5169H13.75C13.2527 48.5169 12.7758 48.3193 12.4242 47.9677C12.0725 47.616 11.875 47.1391 11.875 46.6419V26.3419C11.875 26.0508 11.9428 25.7637 12.0729 25.5033C12.2031 25.243 12.3921 25.0165 12.625 24.8419L28.875 12.6519Z" fill="#1872D9"/>
</svg>
