<svg width="434" height="102" viewBox="0 0 434 102" fill="none" xmlns="http://www.w3.org/2000/svg">
<g clip-path="url(#clip0_26_117)">
<path d="M9.61792 21.7968C9.61792 21.7968 9.75956 21.7024 9.83825 21.6709C10.3891 21.4663 11.0186 21.9227 11.2074 22.4893C11.3963 23.0558 11.2547 23.6696 11.1288 24.2362C10.153 28.4696 8.4848 32.9706 8.86251 37.3615C9.08284 39.9582 10.515 43.2946 12.5452 44.9786C16.1648 47.9687 20.9334 43.3576 19.155 39.4231C18.3524 37.6447 17.0462 35.9765 17.4081 33.8834C17.7386 31.9319 18.9977 30.7673 20.7288 32.3883C22.6173 34.1667 25.3085 37.0782 24.1911 40.5248C23.1682 43.6881 19.879 46.4422 17.8016 48.913C9.99563 58.214 9.7753 68.4594 8.68939 80.0109C8.3589 83.5834 8.13857 84.1342 8.13857 84.1342C8.13857 84.1342 6.47037 83.6935 5.79364 81.7893C5.51036 80.9866 5.17987 80.184 4.8179 79.3971C4.67626 79.0981 3.93658 76.3597 3.43297 77.3669C3.071 78.1066 2.83493 79.0824 3.10248 79.9007C3.55887 81.3329 4.42445 83.9139 5.11692 85.2358C6.12413 87.1244 7.9025 89.6267 12.4822 89.847C21.6573 90.2877 30.7223 90.2404 39.8974 90.1775C42.8089 90.1618 47.4201 88.4936 49.6234 86.369C51.8109 84.2444 47.3886 81.742 45.5001 83.127C43.8319 84.3545 43.942 83.3473 43.942 83.3473C43.8476 75.3368 45.4686 67.2633 44.0522 59.2842C43.0607 53.6658 38.9217 49.936 37.0332 44.7582C36.1361 42.3031 35.6954 39.848 35.6954 38.5103C35.6954 31.3182 46.0352 29.3981 49.8595 25.023C49.8595 25.023 53.6523 20.6794 54.4392 18.1142C55.226 15.5489 55.887 10.7489 55.887 8.75016C55.887 6.75146 54.99 6.62556 56.2175 5.06752C57.4451 3.50948 57.4451 0.613725 55.887 0.267494C52.2673 -0.503658 52.2673 0.188805 50.426 2.94292C49.9854 3.61964 41.9434 4.0603 39.7243 3.72981C34.5308 2.95866 28.8495 2.72259 23.7347 4.0603C17.8488 5.61834 13.9458 10.8118 9.72809 14.8722C7.35168 17.1699 4.29855 19.3574 2.41001 22.2375C1.13525 24.126 0.222461 26.8014 0.316888 29.0362C0.427053 31.5857 3.071 34.7647 5.95102 33.0178C6.78512 32.5142 7.1943 31.507 7.43037 30.547C8.07562 27.8244 7.79234 24.8342 9.14579 22.3948C9.27169 22.1745 9.42907 21.9384 9.63366 21.7811L9.61792 21.7968Z" fill="white"/>
<path d="M56.6264 85.6293C56.7366 85.6293 56.8467 85.5978 56.9569 85.5349C56.9726 84.1342 56.5949 82.765 56.2802 81.4116C54.848 75.2738 54.5962 68.7584 56.0284 62.5892C56.7208 59.5675 57.8225 56.5144 59.4435 53.8547C61.2376 50.9275 64.9202 47.5281 64.5897 43.8297C64.2592 40.1313 61.0173 38.3687 58.2474 36.8107C56.9254 36.071 55.6349 35.0166 55.2572 33.5529C54.6749 31.3339 56.3274 29.2251 57.1458 27.069C58.1687 24.3778 57.9169 21.4506 58.5307 18.6807C58.7195 17.8152 59.2389 15.3286 60.2776 15.0453C61.4736 14.7305 62.6225 16.4774 63.4409 17.0755C67.092 19.6565 71.5144 17.705 74.9452 15.7535C76.8652 14.6519 78.0455 15.4387 78.376 17.4847C78.738 19.7037 78.5964 21.9699 78.801 24.2047C79.0055 26.4395 79.698 28.6742 79.7295 30.972C79.761 33.852 78.7065 36.5431 76.157 38.054C74.0009 39.3287 69.437 39.6907 69.4999 43.1215C69.5943 47.5124 75.858 50.3137 78.5177 53.0678C82.5465 57.2383 85.8043 62.1957 87.803 67.6568C88.6056 69.86 89.2194 72.1578 89.125 74.5027C89.0305 77.0522 88.1335 79.5073 87.0476 81.8208C86.0718 83.9139 84.86 86.007 82.9243 87.2818C80.8154 88.6667 78.1557 88.8713 75.6377 88.9972C68.6501 89.3592 61.5523 89.4693 54.7851 87.691C53.6834 87.3919 52.5031 86.9828 51.8893 86.0228C51.2756 85.0628 51.7634 83.426 52.9123 83.3788C54.3916 83.3159 55.3044 85.7552 56.6107 85.6293H56.6264ZM59.1917 81.868C59.1917 81.868 59.2861 82.0096 59.349 82.0568C59.7897 82.3873 60.3248 82.0096 60.3248 81.4431C60.3248 80.2155 59.7897 75.6988 60.5136 74.424C61.2376 73.1492 63.016 71.7958 63.551 71.3079C64.0861 70.82 65.8015 69.9702 65.7543 68.4122C65.7071 66.8541 65.6127 64.4462 64.2278 63.6121C62.8428 62.778 62.953 63.2187 61.8199 63.7852C60.6868 64.3518 59.5222 65.5164 59.412 66.7912C59.3018 68.0659 59.0186 68.3492 58.9713 69.9072C58.9241 71.4653 58.4835 74.2037 58.5307 75.6515C58.5936 77.3827 58.6881 79.1296 58.9241 80.845C58.9713 81.1283 59.0028 81.5847 59.1602 81.8837L59.1917 81.868Z" fill="white"/>
<path d="M85.7729 83.9454C89.613 83.8824 93.3743 83.0011 94.8379 79.0509C96.5848 74.3453 94.1455 69.4509 92.3199 65.1544C90.3841 60.5905 84.8916 49.5583 90.4313 45.7497C92.6504 44.2232 97.0255 44.6481 97.293 48.0475C97.3245 48.5511 97.3717 50.9432 97.3717 50.9432" stroke="white" stroke-width="3.14756" stroke-miterlimit="10" stroke-linecap="round"/>
</g>
<path d="M119.294 57V13.0448H127.747L142.655 46.3954L157.255 13.0448H165.401V57H157.87V26.3851L145.944 57H138.997L126.825 26.3851V57H119.294ZM172.317 46.9487C172.317 40.5347 176.989 37.3278 186.333 37.3278C188.526 37.3278 190.718 37.5327 192.911 37.9425V35.5142C192.911 32.6249 190.831 31.1802 186.671 31.1802C183.147 31.1802 179.233 31.6925 174.929 32.7171V26.2621C179.233 25.2375 183.147 24.7252 186.671 24.7252C196.261 24.7252 201.057 28.2703 201.057 35.3605V57H196.323L193.434 54.1106C190.626 56.0369 187.532 57 184.151 57C176.261 57 172.317 53.6496 172.317 46.9487ZM192.911 43.4753C190.862 43.0655 188.669 42.8606 186.333 42.8606C182.419 42.8606 180.462 44.1926 180.462 46.8565C180.462 49.7254 182.102 51.1598 185.38 51.1598C188.085 51.1598 190.595 50.3196 192.911 48.6393V43.4753ZM229.212 33.1474C227.532 32.0408 225.421 31.4876 222.88 31.4876C217.819 31.4876 215.288 34.3257 215.288 40.002C215.288 46.7438 217.921 50.1147 223.188 50.1147C225.319 50.1147 227.327 49.8176 229.212 49.2233V33.1474ZM237.358 55.0635C232.419 56.3545 227.594 57 222.88 57C212.45 57 207.235 51.4057 207.235 40.2171C207.235 29.8892 212.337 24.7252 222.542 24.7252C224.714 24.7252 226.938 25.2375 229.212 26.2621V13.0448H237.358V55.0635ZM243.506 46.9487C243.506 40.5347 248.178 37.3278 257.522 37.3278C259.715 37.3278 261.907 37.5327 264.1 37.9425V35.5142C264.1 32.6249 262.02 31.1802 257.86 31.1802C254.336 31.1802 250.422 31.6925 246.118 32.7171V26.2621C250.422 25.2375 254.336 24.7252 257.86 24.7252C267.45 24.7252 272.245 28.2703 272.245 35.3605V57H267.512L264.622 54.1106C261.815 56.0369 258.721 57 255.34 57C247.45 57 243.506 53.6496 243.506 46.9487ZM264.1 43.4753C262.051 43.0655 259.858 42.8606 257.522 42.8606C253.608 42.8606 251.651 44.1926 251.651 46.8565C251.651 49.7254 253.29 51.1598 256.569 51.1598C259.274 51.1598 261.784 50.3196 264.1 48.6393V43.4753ZM279.961 57V24.7252H286.262L287.276 28.8441C290.104 26.0982 293.096 24.7252 296.252 24.7252V31.3031C293.219 31.3031 290.504 32.5634 288.106 35.0839V57H279.961ZM299.326 46.9487C299.326 40.5347 303.998 37.3278 313.342 37.3278C315.535 37.3278 317.727 37.5327 319.92 37.9425V35.5142C319.92 32.6249 317.84 31.1802 313.68 31.1802C310.156 31.1802 306.242 31.6925 301.938 32.7171V26.2621C306.242 25.2375 310.156 24.7252 313.68 24.7252C323.27 24.7252 328.065 28.2703 328.065 35.3605V57H323.332L320.442 54.1106C317.635 56.0369 314.541 57 311.16 57C303.27 57 299.326 53.6496 299.326 46.9487ZM319.92 43.4753C317.871 43.0655 315.678 42.8606 313.342 42.8606C309.428 42.8606 307.471 44.1926 307.471 46.8565C307.471 49.7254 309.11 51.1598 312.389 51.1598C315.094 51.1598 317.604 50.3196 319.92 48.6393V43.4753ZM378.414 13.0448L359.141 57H350.381L331.938 13.0448H341.621L355.238 46.7028L368.824 13.0448H378.414ZM395.873 24.7252C405.668 24.7252 410.566 29.7253 410.566 39.7253C410.566 41.0573 410.474 42.3893 410.289 43.7212H388.865C388.865 48.2704 392.205 50.545 398.886 50.545C402.144 50.545 405.402 50.2377 408.66 49.6229V56.0779C405.812 56.6926 402.349 57 398.271 57C386.57 57 380.719 51.4979 380.719 40.4938C380.719 29.9814 385.771 24.7252 395.873 24.7252ZM388.865 38.0655H402.636V37.8196C402.636 33.3523 400.381 31.1187 395.873 31.1187C391.57 31.1187 389.234 33.4343 388.865 38.0655ZM416.222 19.4998H422.246L423.476 24.7252H431.591V31.1802H424.367V46.0266C424.367 49.0389 425.668 50.545 428.271 50.545H431.591V57H424.336C418.927 57 416.222 54.1004 416.222 48.3012V19.4998Z" fill="white"/>
<path d="M127.071 93.9252H137.528V78.295H131.027C131.027 86.9538 129.709 92.1639 127.071 93.9252ZM120.183 101.256V93.9252H122.728C126.555 93.9252 128.469 88.7151 128.469 78.295V76.2202H140.087V93.9252H142.646V101.256H140.087V96H122.728V101.256H120.183ZM151.997 87.7008V89.7756H145.081V87.7008H151.997ZM158.014 93.0399C159.019 93.5379 160.139 93.7869 161.375 93.7869C164.667 93.7869 166.313 91.9749 166.313 88.3509C166.313 85.188 164.676 83.6065 161.403 83.6065C160.112 83.6065 158.982 83.7171 158.014 83.9385V93.0399ZM155.455 82.0711C157.382 81.6746 159.374 81.4764 161.43 81.4764C166.364 81.4764 168.83 83.7771 168.83 88.3785C168.83 93.4595 166.35 96 161.389 96C160.227 96 159.102 95.7695 158.014 95.3084V101.256H155.455V82.0711ZM179.495 96V76.2202H182.04V84.9344H187.642C187.956 79.0327 190.657 76.0819 195.748 76.0819C201.068 76.0819 203.729 79.4338 203.729 86.1378C203.729 92.8048 201.068 96.1383 195.748 96.1383C190.565 96.1383 187.859 93.0953 187.628 87.0092H182.04V96H179.495ZM195.748 94.0635C199.27 94.0635 201.031 91.3939 201.031 86.0548C201.031 80.7894 199.27 78.1567 195.748 78.1567C192.124 78.1567 190.312 80.7894 190.312 86.0548C190.312 91.3939 192.124 94.0635 195.748 94.0635ZM205.112 93.9252C207.297 93.9252 208.39 92.6803 208.39 90.1905V81.4764H219.456V96H216.897V83.5512H210.949V90.1905C210.949 94.0635 209.003 96 205.112 96V93.9252ZM233.993 96V84.7684L226.178 96H223.619V81.4764H226.04V92.708L233.855 81.4764H236.414V96H233.993ZM239.886 91.6152C239.886 88.6367 241.85 87.1475 245.778 87.1475C247.041 87.1475 248.305 87.2397 249.568 87.4241V86.0548C249.568 84.3857 248.263 83.5512 245.654 83.5512C244.16 83.5512 242.629 83.7817 241.061 84.2428V82.168C242.629 81.7069 244.16 81.4764 245.654 81.4764C249.969 81.4764 252.127 82.9794 252.127 85.9856V96H250.688L249.803 94.5615C248.355 95.5205 246.779 96 245.073 96C241.615 96 239.886 94.5384 239.886 91.6152ZM245.778 89.2223C243.556 89.2223 242.445 90.0061 242.445 91.5737C242.445 93.1414 243.321 93.9252 245.073 93.9252C246.843 93.9252 248.342 93.4549 249.568 92.5143V89.4989C248.305 89.3145 247.041 89.2223 245.778 89.2223ZM256.29 96V81.4764H258.849V87.5625H266.526V81.4764H269.085V96H266.526V89.6373H258.849V96H256.29ZM272.557 91.6152C272.557 88.6367 274.521 87.1475 278.449 87.1475C279.713 87.1475 280.976 87.2397 282.239 87.4241V86.0548C282.239 84.3857 280.935 83.5512 278.325 83.5512C276.831 83.5512 275.3 83.7817 273.733 84.2428V82.168C275.3 81.7069 276.831 81.4764 278.325 81.4764C282.64 81.4764 284.798 82.9794 284.798 85.9856V96H283.36L282.474 94.5615C281.027 95.5205 279.45 96 277.744 96C274.286 96 272.557 94.5384 272.557 91.6152ZM278.449 89.2223C276.227 89.2223 275.116 90.0061 275.116 91.5737C275.116 93.1414 275.992 93.9252 277.744 93.9252C279.514 93.9252 281.013 93.4549 282.239 92.5143V89.4989C280.976 89.3145 279.713 89.2223 278.449 89.2223ZM311.093 95.3084C309.387 95.8617 307.543 96.1383 305.56 96.1383C298.644 96.1383 295.186 92.7034 295.186 85.8334C295.186 79.3324 298.644 76.0819 305.56 76.0819C307.543 76.0819 309.387 76.3585 311.093 76.9118V79.1249C309.387 78.4794 307.635 78.1567 305.837 78.1567C300.442 78.1567 297.745 80.7156 297.745 85.8334C297.745 91.3202 300.442 94.0635 305.837 94.0635C307.635 94.0635 309.387 93.7408 311.093 93.0953V95.3084ZM314.357 88.7382C314.357 83.8047 316.755 81.338 321.55 81.338C326.345 81.338 328.743 83.8047 328.743 88.7382C328.743 93.6716 326.345 96.1383 321.55 96.1383C316.773 96.1383 314.376 93.6716 314.357 88.7382ZM316.916 88.6828C316.916 92.27 318.461 94.0635 321.55 94.0635C324.639 94.0635 326.184 92.27 326.184 88.6828C326.184 85.1695 324.639 83.4128 321.55 83.4128C318.461 83.4128 316.916 85.1695 316.916 88.6828ZM342.091 96L340.057 92.5973C338.693 90.3196 337.374 89.1808 336.101 89.1808V87.4795C337.577 87.4795 338.674 86.4789 339.393 84.4779C340.122 82.4769 341.353 81.4764 343.087 81.4764H344.567V83.6895H343.474C342.478 83.6895 341.745 84.3673 341.275 85.7228C340.804 87.0691 339.993 87.9682 338.84 88.42C339.928 88.6137 341.233 89.9231 342.755 92.3483L345.051 96H342.091ZM334.76 81.4764V96H332.201V81.4764H334.76ZM346.78 88.7382C346.78 83.8047 349.177 81.338 353.972 81.338C358.767 81.338 361.165 83.8047 361.165 88.7382C361.165 93.6716 358.767 96.1383 353.972 96.1383C349.196 96.1383 346.798 93.6716 346.78 88.7382ZM349.339 88.6828C349.339 92.27 350.883 94.0635 353.972 94.0635C357.061 94.0635 358.606 92.27 358.606 88.6828C358.606 85.1695 357.061 83.4128 353.972 83.4128C350.883 83.4128 349.339 85.1695 349.339 88.6828ZM362.548 93.9252C364.734 93.9252 365.826 92.6803 365.826 90.1905V81.4764H376.892V96H374.333V83.5512H368.385V90.1905C368.385 94.0635 366.44 96 362.548 96V93.9252ZM380.364 88.7382C380.364 83.8047 382.761 81.338 387.557 81.338C392.352 81.338 394.749 83.8047 394.749 88.7382C394.749 93.6716 392.352 96.1383 387.557 96.1383C382.78 96.1383 380.382 93.6716 380.364 88.7382ZM382.923 88.6828C382.923 92.27 384.467 94.0635 387.557 94.0635C390.646 94.0635 392.19 92.27 392.19 88.6828C392.19 85.1695 390.646 83.4128 387.557 83.4128C384.467 83.4128 382.923 85.1695 382.923 88.6828ZM405.925 93.9252C407.364 93.9252 408.083 93.1875 408.083 91.7121C408.083 90.3289 406.963 89.6373 404.722 89.6373H403.616V87.9636C406.474 87.6408 407.903 86.6772 407.903 85.0727C407.903 84.0583 407.313 83.5512 406.133 83.5512H400.766V93.9252H405.925ZM398.207 96V81.4764H406.368C409.208 81.4764 410.628 82.689 410.628 85.1142C410.628 86.6173 409.725 87.733 407.917 88.4615C409.891 88.9503 410.877 90.0199 410.877 91.6706C410.877 94.5569 409.277 96 406.078 96H398.207ZM413.644 91.6152C413.644 88.6367 415.608 87.1475 419.536 87.1475C420.8 87.1475 422.063 87.2397 423.326 87.4241V86.0548C423.326 84.3857 422.021 83.5512 419.412 83.5512C417.918 83.5512 416.387 83.7817 414.819 84.2428V82.168C416.387 81.7069 417.918 81.4764 419.412 81.4764C423.727 81.4764 425.885 82.9794 425.885 85.9856V96H424.447L423.561 94.5615C422.114 95.5205 420.537 96 418.831 96C415.373 96 413.644 94.5384 413.644 91.6152ZM419.536 89.2223C417.314 89.2223 416.203 90.0061 416.203 91.5737C416.203 93.1414 417.079 93.9252 418.831 93.9252C420.601 93.9252 422.1 93.4549 423.326 92.5143V89.4989C422.063 89.3145 420.8 89.2223 419.536 89.2223Z" fill="white"/>
<defs>
<clipPath id="clip0_26_117">
<rect width="98.6287" height="90.2562" fill="white" transform="translate(0.31665)"/>
</clipPath>
</defs>
</svg>
