<svg width="434" height="102" viewBox="0 0 434 102" fill="none" xmlns="http://www.w3.org/2000/svg">
<g clip-path="url(#clip0_26_117)">
<path d="M9.6178 21.7969C9.6178 21.7969 9.75944 21.7024 9.83813 21.671C10.389 21.4664 11.0185 21.9228 11.2073 22.4893C11.3962 23.0559 11.2545 23.6697 11.1286 24.2362C10.1529 28.4697 8.48468 32.9707 8.86239 37.3615C9.08272 39.9583 10.5149 43.2947 12.545 44.9786C16.1647 47.9688 20.9333 43.3576 19.1549 39.4232C18.3523 37.6448 17.046 35.9766 17.408 33.8835C17.7385 31.932 18.9975 30.7674 20.7287 32.3884C22.6172 34.1668 25.3084 37.0783 24.191 40.5248C23.168 43.6881 19.8788 46.4422 17.8015 48.9131C9.99551 58.2141 9.77518 68.4594 8.68927 80.0109C8.35878 83.5834 8.13845 84.1342 8.13845 84.1342C8.13845 84.1342 6.47024 83.6936 5.79352 81.7893C5.51024 80.9867 5.17974 80.1841 4.81777 79.3972C4.67613 79.0982 3.93646 76.3598 3.43285 77.367C3.07088 78.1067 2.83481 79.0824 3.10236 79.9008C3.55875 81.3329 4.42433 83.9139 5.11679 85.2359C6.12401 87.1244 7.90238 89.6267 12.4821 89.8471C21.6572 90.2877 30.7222 90.2405 39.8973 90.1776C42.8088 90.1618 47.42 88.4936 49.6233 86.369C51.8108 84.2444 47.3885 81.7421 45.5 83.127C43.8318 84.3546 43.9419 83.3474 43.9419 83.3474C43.8475 75.3368 45.4685 67.2633 44.0521 59.2843C43.0606 53.6659 38.9216 49.936 37.033 44.7583C36.136 42.3032 35.6953 39.8481 35.6953 38.5104C35.6953 31.3182 46.0351 29.3982 49.8593 25.0231C49.8593 25.0231 53.6521 20.6795 54.439 18.1142C55.2259 15.549 55.8869 10.7489 55.8869 8.75023C55.8869 6.75153 54.9899 6.62562 56.2174 5.06758C57.445 3.50954 57.445 0.613786 55.8869 0.267555C52.2672 -0.503597 52.2672 0.188866 50.4259 2.94298C49.9852 3.6197 41.9432 4.06036 39.7242 3.72987C34.5307 2.95872 28.8494 2.72265 23.7346 4.06036C17.8487 5.6184 13.9457 10.8119 9.72797 14.8722C7.35156 17.1699 4.29843 19.3575 2.40989 22.2375C1.13513 24.126 0.222339 26.8015 0.316766 29.0362C0.426931 31.5858 3.07088 34.7648 5.9509 33.0179C6.785 32.5143 7.19418 31.5071 7.43025 30.5471C8.0755 27.8244 7.79222 24.8342 9.14567 22.3949C9.27157 22.1746 9.42895 21.9385 9.63354 21.7811L9.6178 21.7969Z" fill="white"/>
<path d="M56.6265 85.6293C56.7367 85.6293 56.8469 85.5979 56.957 85.5349C56.9728 84.1342 56.5951 82.7651 56.2803 81.4116C54.8482 75.2739 54.5964 68.7584 56.0285 62.5892C56.721 59.5676 57.8226 56.5144 59.4436 53.8547C61.2377 50.9275 64.9203 47.5281 64.5899 43.8298C64.2594 40.1314 61.0174 38.3687 58.2475 36.8107C56.9255 36.071 55.635 35.0166 55.2573 33.553C54.675 31.334 56.3275 29.2251 57.1459 27.069C58.1688 24.3778 57.917 21.4506 58.5308 18.6808C58.7197 17.8152 59.239 15.3286 60.2777 15.0453C61.4738 14.7306 62.6226 16.4775 63.441 17.0755C67.0922 19.6565 71.5145 17.705 74.9453 15.7535C76.8653 14.6519 78.0457 15.4388 78.3762 17.4847C78.7381 19.7037 78.5965 21.97 78.8011 24.2047C79.0057 26.4395 79.6981 28.6743 79.7296 30.972C79.7611 33.852 78.7066 36.5432 76.1571 38.054C74.001 39.3287 69.4371 39.6907 69.5 43.1216C69.5945 47.5124 75.8581 50.3137 78.5178 53.0678C82.5467 57.2384 85.8044 62.1958 87.8031 67.6568C88.6057 69.8601 89.2195 72.1578 89.1251 74.5027C89.0306 77.0522 88.1336 79.5073 87.0477 81.8208C86.0719 83.9139 84.8601 86.007 82.9244 87.2818C80.8155 88.6667 78.1558 88.8713 75.6378 88.9972C68.6502 89.3592 61.5525 89.4694 54.7852 87.691C53.6836 87.392 52.5032 86.9828 51.8895 86.0228C51.2757 85.0628 51.7635 83.426 52.9124 83.3788C54.3918 83.3159 55.3046 85.7552 56.6108 85.6293H56.6265ZM59.1918 81.868C59.1918 81.868 59.2862 82.0096 59.3492 82.0569C59.7898 82.3874 60.3249 82.0097 60.3249 81.4431C60.3249 80.2155 59.7898 75.6988 60.5138 74.424C61.2377 73.1493 63.0161 71.7958 63.5512 71.3079C64.0862 70.8201 65.8017 69.9702 65.7545 68.4122C65.7072 66.8542 65.6128 64.4463 64.2279 63.6122C62.843 62.7781 62.9531 63.2187 61.82 63.7853C60.6869 64.3518 59.5223 65.5164 59.4121 66.7912C59.302 68.066 59.0187 68.3492 58.9715 69.9073C58.9242 71.4653 58.4836 74.2037 58.5308 75.6516C58.5938 77.3827 58.6882 79.1296 58.9242 80.845C58.9715 81.1283 59.0029 81.5847 59.1603 81.8837L59.1918 81.868Z" fill="white"/>
<path d="M85.7729 83.9454C89.613 83.8824 93.3743 83.0011 94.8379 79.0509C96.5848 74.3453 94.1455 69.4509 92.3199 65.1545C90.3841 60.5905 84.8916 49.5583 90.4313 45.7498C92.6504 44.2232 97.0255 44.6481 97.293 48.0475C97.3245 48.5511 97.3717 50.9432 97.3717 50.9432" stroke="white" stroke-width="3.14756" stroke-miterlimit="10" stroke-linecap="round"/>
</g>
<path d="M119.294 57V13.0448H127.747L142.655 46.3954L157.255 13.0448H165.401V57H157.87V26.3851L145.944 57H138.997L126.825 26.3851V57H119.294ZM172.317 46.9487C172.317 40.5347 176.989 37.3278 186.333 37.3278C188.526 37.3278 190.718 37.5327 192.911 37.9425V35.5142C192.911 32.6249 190.831 31.1802 186.671 31.1802C183.147 31.1802 179.233 31.6925 174.929 32.7171V26.2621C179.233 25.2375 183.147 24.7252 186.671 24.7252C196.261 24.7252 201.057 28.2703 201.057 35.3605V57H196.323L193.434 54.1106C190.626 56.0369 187.532 57 184.151 57C176.261 57 172.317 53.6496 172.317 46.9487ZM192.911 43.4753C190.862 43.0655 188.669 42.8606 186.333 42.8606C182.419 42.8606 180.462 44.1926 180.462 46.8565C180.462 49.7254 182.102 51.1598 185.38 51.1598C188.085 51.1598 190.595 50.3196 192.911 48.6393V43.4753ZM229.212 33.1474C227.532 32.0408 225.421 31.4876 222.88 31.4876C217.819 31.4876 215.288 34.3257 215.288 40.002C215.288 46.7438 217.921 50.1147 223.188 50.1147C225.319 50.1147 227.327 49.8176 229.212 49.2233V33.1474ZM237.358 55.0635C232.419 56.3545 227.594 57 222.88 57C212.45 57 207.235 51.4057 207.235 40.2171C207.235 29.8892 212.337 24.7252 222.542 24.7252C224.714 24.7252 226.938 25.2375 229.212 26.2621V13.0448H237.358V55.0635ZM243.506 46.9487C243.506 40.5347 248.178 37.3278 257.522 37.3278C259.715 37.3278 261.907 37.5327 264.1 37.9425V35.5142C264.1 32.6249 262.02 31.1802 257.86 31.1802C254.336 31.1802 250.422 31.6925 246.118 32.7171V26.2621C250.422 25.2375 254.336 24.7252 257.86 24.7252C267.45 24.7252 272.245 28.2703 272.245 35.3605V57H267.512L264.622 54.1106C261.815 56.0369 258.721 57 255.34 57C247.45 57 243.506 53.6496 243.506 46.9487ZM264.1 43.4753C262.051 43.0655 259.858 42.8606 257.522 42.8606C253.608 42.8606 251.651 44.1926 251.651 46.8565C251.651 49.7254 253.29 51.1598 256.569 51.1598C259.274 51.1598 261.784 50.3196 264.1 48.6393V43.4753ZM279.961 57V24.7252H286.262L287.276 28.8441C290.104 26.0982 293.096 24.7252 296.252 24.7252V31.3031C293.219 31.3031 290.504 32.5634 288.106 35.0839V57H279.961ZM299.326 46.9487C299.326 40.5347 303.998 37.3278 313.342 37.3278C315.535 37.3278 317.727 37.5327 319.92 37.9425V35.5142C319.92 32.6249 317.84 31.1802 313.68 31.1802C310.156 31.1802 306.242 31.6925 301.938 32.7171V26.2621C306.242 25.2375 310.156 24.7252 313.68 24.7252C323.27 24.7252 328.065 28.2703 328.065 35.3605V57H323.332L320.442 54.1106C317.635 56.0369 314.541 57 311.16 57C303.27 57 299.326 53.6496 299.326 46.9487ZM319.92 43.4753C317.871 43.0655 315.678 42.8606 313.342 42.8606C309.428 42.8606 307.471 44.1926 307.471 46.8565C307.471 49.7254 309.11 51.1598 312.389 51.1598C315.094 51.1598 317.604 50.3196 319.92 48.6393V43.4753ZM378.414 13.0448L359.141 57H350.381L331.938 13.0448H341.621L355.238 46.7028L368.824 13.0448H378.414ZM395.873 24.7252C405.668 24.7252 410.566 29.7253 410.566 39.7253C410.566 41.0573 410.474 42.3893 410.289 43.7212H388.865C388.865 48.2704 392.205 50.545 398.886 50.545C402.144 50.545 405.402 50.2377 408.66 49.6229V56.0779C405.812 56.6926 402.349 57 398.271 57C386.57 57 380.719 51.4979 380.719 40.4938C380.719 29.9814 385.771 24.7252 395.873 24.7252ZM388.865 38.0655H402.636V37.8196C402.636 33.3523 400.381 31.1187 395.873 31.1187C391.57 31.1187 389.234 33.4343 388.865 38.0655ZM416.222 19.4998H422.246L423.476 24.7252H431.591V31.1802H424.367V46.0266C424.367 49.0389 425.668 50.545 428.271 50.545H431.591V57H424.336C418.927 57 416.222 54.1004 416.222 48.3012V19.4998Z" fill="white"/>
<path d="M127.071 93.9252H137.528V78.295H131.027C131.027 86.9538 129.709 92.1639 127.071 93.9252ZM120.183 101.256V93.9252H122.728C126.555 93.9252 128.469 88.7151 128.469 78.295V76.2202H140.087V93.9252H142.646V101.256H140.087V96H122.728V101.256H120.183ZM151.997 87.7008V89.7756H145.081V87.7008H151.997ZM158.014 93.0399C159.019 93.5379 160.139 93.7869 161.375 93.7869C164.667 93.7869 166.313 91.9749 166.313 88.3509C166.313 85.188 164.676 83.6065 161.403 83.6065C160.112 83.6065 158.982 83.7171 158.014 83.9385V93.0399ZM155.455 82.0711C157.382 81.6746 159.374 81.4764 161.43 81.4764C166.364 81.4764 168.83 83.7771 168.83 88.3785C168.83 93.4595 166.35 96 161.389 96C160.227 96 159.102 95.7695 158.014 95.3084V101.256H155.455V82.0711ZM179.495 96V76.2202H182.04V84.9344H187.642C187.956 79.0327 190.657 76.0819 195.748 76.0819C201.068 76.0819 203.729 79.4338 203.729 86.1378C203.729 92.8048 201.068 96.1383 195.748 96.1383C190.565 96.1383 187.859 93.0953 187.628 87.0092H182.04V96H179.495ZM195.748 94.0635C199.27 94.0635 201.031 91.3939 201.031 86.0548C201.031 80.7894 199.27 78.1567 195.748 78.1567C192.124 78.1567 190.312 80.7894 190.312 86.0548C190.312 91.3939 192.124 94.0635 195.748 94.0635ZM205.112 93.9252C207.297 93.9252 208.39 92.6803 208.39 90.1905V81.4764H219.456V96H216.897V83.5512H210.949V90.1905C210.949 94.0635 209.003 96 205.112 96V93.9252ZM233.993 96V84.7684L226.178 96H223.619V81.4764H226.04V92.708L233.855 81.4764H236.414V96H233.993ZM239.886 91.6152C239.886 88.6367 241.85 87.1475 245.778 87.1475C247.041 87.1475 248.305 87.2397 249.568 87.4241V86.0548C249.568 84.3857 248.263 83.5512 245.654 83.5512C244.16 83.5512 242.629 83.7817 241.061 84.2428V82.168C242.629 81.7069 244.16 81.4764 245.654 81.4764C249.969 81.4764 252.127 82.9794 252.127 85.9856V96H250.688L249.803 94.5615C248.355 95.5205 246.779 96 245.073 96C241.615 96 239.886 94.5384 239.886 91.6152ZM245.778 89.2223C243.556 89.2223 242.445 90.0061 242.445 91.5737C242.445 93.1414 243.321 93.9252 245.073 93.9252C246.843 93.9252 248.342 93.4549 249.568 92.5143V89.4989C248.305 89.3145 247.041 89.2223 245.778 89.2223ZM256.29 96V81.4764H258.849V87.5625H266.526V81.4764H269.085V96H266.526V89.6373H258.849V96H256.29ZM272.557 91.6152C272.557 88.6367 274.521 87.1475 278.449 87.1475C279.713 87.1475 280.976 87.2397 282.239 87.4241V86.0548C282.239 84.3857 280.935 83.5512 278.325 83.5512C276.831 83.5512 275.3 83.7817 273.733 84.2428V82.168C275.3 81.7069 276.831 81.4764 278.325 81.4764C282.64 81.4764 284.798 82.9794 284.798 85.9856V96H283.36L282.474 94.5615C281.027 95.5205 279.45 96 277.744 96C274.286 96 272.557 94.5384 272.557 91.6152ZM278.449 89.2223C276.227 89.2223 275.116 90.0061 275.116 91.5737C275.116 93.1414 275.992 93.9252 277.744 93.9252C279.514 93.9252 281.013 93.4549 282.239 92.5143V89.4989C280.976 89.3145 279.713 89.2223 278.449 89.2223ZM311.093 95.3084C309.387 95.8617 307.543 96.1383 305.56 96.1383C298.644 96.1383 295.186 92.7034 295.186 85.8334C295.186 79.3324 298.644 76.0819 305.56 76.0819C307.543 76.0819 309.387 76.3585 311.093 76.9118V79.1249C309.387 78.4794 307.635 78.1567 305.837 78.1567C300.442 78.1567 297.745 80.7156 297.745 85.8334C297.745 91.3202 300.442 94.0635 305.837 94.0635C307.635 94.0635 309.387 93.7408 311.093 93.0953V95.3084ZM314.357 88.7382C314.357 83.8047 316.755 81.338 321.55 81.338C326.345 81.338 328.743 83.8047 328.743 88.7382C328.743 93.6716 326.345 96.1383 321.55 96.1383C316.773 96.1383 314.376 93.6716 314.357 88.7382ZM316.916 88.6828C316.916 92.27 318.461 94.0635 321.55 94.0635C324.639 94.0635 326.184 92.27 326.184 88.6828C326.184 85.1695 324.639 83.4128 321.55 83.4128C318.461 83.4128 316.916 85.1695 316.916 88.6828ZM342.091 96L340.057 92.5973C338.693 90.3196 337.374 89.1808 336.101 89.1808V87.4795C337.577 87.4795 338.674 86.4789 339.393 84.4779C340.122 82.4769 341.353 81.4764 343.087 81.4764H344.567V83.6895H343.474C342.478 83.6895 341.745 84.3673 341.275 85.7228C340.804 87.0691 339.993 87.9682 338.84 88.42C339.928 88.6137 341.233 89.9231 342.755 92.3483L345.051 96H342.091ZM334.76 81.4764V96H332.201V81.4764H334.76ZM346.78 88.7382C346.78 83.8047 349.177 81.338 353.972 81.338C358.767 81.338 361.165 83.8047 361.165 88.7382C361.165 93.6716 358.767 96.1383 353.972 96.1383C349.196 96.1383 346.798 93.6716 346.78 88.7382ZM349.339 88.6828C349.339 92.27 350.883 94.0635 353.972 94.0635C357.061 94.0635 358.606 92.27 358.606 88.6828C358.606 85.1695 357.061 83.4128 353.972 83.4128C350.883 83.4128 349.339 85.1695 349.339 88.6828ZM362.548 93.9252C364.734 93.9252 365.826 92.6803 365.826 90.1905V81.4764H376.892V96H374.333V83.5512H368.385V90.1905C368.385 94.0635 366.44 96 362.548 96V93.9252ZM380.364 88.7382C380.364 83.8047 382.761 81.338 387.557 81.338C392.352 81.338 394.749 83.8047 394.749 88.7382C394.749 93.6716 392.352 96.1383 387.557 96.1383C382.78 96.1383 380.382 93.6716 380.364 88.7382ZM382.923 88.6828C382.923 92.27 384.467 94.0635 387.557 94.0635C390.646 94.0635 392.19 92.27 392.19 88.6828C392.19 85.1695 390.646 83.4128 387.557 83.4128C384.467 83.4128 382.923 85.1695 382.923 88.6828ZM405.925 93.9252C407.364 93.9252 408.083 93.1875 408.083 91.7121C408.083 90.3289 406.963 89.6373 404.722 89.6373H403.616V87.9636C406.474 87.6408 407.903 86.6772 407.903 85.0727C407.903 84.0583 407.313 83.5512 406.133 83.5512H400.766V93.9252H405.925ZM398.207 96V81.4764H406.368C409.208 81.4764 410.628 82.689 410.628 85.1142C410.628 86.6173 409.725 87.733 407.917 88.4615C409.891 88.9503 410.877 90.0199 410.877 91.6706C410.877 94.5569 409.277 96 406.078 96H398.207ZM413.644 91.6152C413.644 88.6367 415.608 87.1475 419.536 87.1475C420.8 87.1475 422.063 87.2397 423.326 87.4241V86.0548C423.326 84.3857 422.021 83.5512 419.412 83.5512C417.918 83.5512 416.387 83.7817 414.819 84.2428V82.168C416.387 81.7069 417.918 81.4764 419.412 81.4764C423.727 81.4764 425.885 82.9794 425.885 85.9856V96H424.447L423.561 94.5615C422.114 95.5205 420.537 96 418.831 96C415.373 96 413.644 94.5384 413.644 91.6152ZM419.536 89.2223C417.314 89.2223 416.203 90.0061 416.203 91.5737C416.203 93.1414 417.079 93.9252 418.831 93.9252C420.601 93.9252 422.1 93.4549 423.326 92.5143V89.4989C422.063 89.3145 420.8 89.2223 419.536 89.2223Z" fill="white"/>
<defs>
<clipPath id="clip0_26_117">
<rect width="98.6287" height="90.2562" fill="white" transform="translate(0.31665)"/>
</clipPath>
</defs>
</svg>
