<svg width="276" height="65" viewBox="0 0 276 65" fill="none" xmlns="http://www.w3.org/2000/svg">
<g clip-path="url(#clip0_14_2)">
<path d="M5.90999 13.85C5.90999 13.85 5.99999 13.79 6.04999 13.77C6.39999 13.64 6.79999 13.93 6.91999 14.29C7.03999 14.65 6.94999 15.04 6.86999 15.4C6.24999 18.09 5.18999 20.95 5.42999 23.74C5.56999 25.39 6.47999 27.51 7.76999 28.58C10.07 30.48 13.1 27.55 11.97 25.05C11.46 23.92 10.63 22.86 10.86 21.53C11.07 20.29 11.87 19.55 12.97 20.58C14.17 21.71 15.88 23.56 15.17 25.75C14.52 27.76 12.43 29.51 11.11 31.08C6.14999 36.99 6.00999 43.5 5.31999 50.84C5.10999 53.11 4.96999 53.46 4.96999 53.46C4.96999 53.46 3.90999 53.18 3.47999 51.97C3.29999 51.46 3.08999 50.95 2.85999 50.45C2.76999 50.26 2.29999 48.52 1.97999 49.16C1.74999 49.63 1.59999 50.25 1.76999 50.77C2.05999 51.68 2.60999 53.32 3.04999 54.16C3.68999 55.36 4.81999 56.95 7.72999 57.09C13.56 57.37 19.32 57.34 25.15 57.3C27 57.29 29.93 56.23 31.33 54.88C32.72 53.53 29.91 51.94 28.71 52.82C27.65 53.6 27.72 52.96 27.72 52.96C27.66 47.87 28.69 42.74 27.79 37.67C27.16 34.1 24.53 31.73 23.33 28.44C22.76 26.88 22.48 25.32 22.48 24.47C22.48 19.9 29.05 18.68 31.48 15.9C31.48 15.9 33.89 13.14 34.39 11.51C34.89 9.88 35.31 6.83 35.31 5.56C35.31 4.29 34.74 4.21 35.52 3.22C36.3 2.23 36.3 0.39 35.31 0.17C33.01 -0.32 33.01 0.12 31.84 1.87C31.56 2.3 26.45 2.58 25.04 2.37C21.74 1.88 18.13 1.73 14.88 2.58C11.14 3.57 8.65999 6.87 5.97999 9.45C4.46999 10.91 2.52999 12.3 1.32999 14.13C0.51999 15.33 -0.0600105 17.03 -1.05021e-05 18.45C0.0699895 20.07 1.74999 22.09 3.57999 20.98C4.10999 20.66 4.36999 20.02 4.51999 19.41C4.92999 17.68 4.74999 15.78 5.60999 14.23C5.68999 14.09 5.78999 13.94 5.91999 13.84L5.90999 13.85Z" fill="#1872D9"/>
<path d="M35.78 54.41C35.85 54.41 35.92 54.39 35.99 54.35C36 53.46 35.76 52.59 35.56 51.73C34.65 47.83 34.49 43.69 35.4 39.77C35.84 37.85 36.54 35.91 37.57 34.22C38.71 32.36 41.05 30.2 40.84 27.85C40.63 25.5 38.57 24.38 36.81 23.39C35.97 22.92 35.15 22.25 34.91 21.32C34.54 19.91 35.59 18.57 36.11 17.2C36.76 15.49 36.6 13.63 36.99 11.87C37.11 11.32 37.44 9.74 38.1 9.56C38.86 9.36 39.59 10.47 40.11 10.85C42.43 12.49 45.24 11.25 47.42 10.01C48.64 9.31 49.39 9.81 49.6 11.11C49.83 12.52 49.74 13.96 49.87 15.38C50 16.8 50.44 18.22 50.46 19.68C50.48 21.51 49.81 23.22 48.19 24.18C46.82 24.99 43.92 25.22 43.96 27.4C44.02 30.19 48 31.97 49.69 33.72C52.25 36.37 54.32 39.52 55.59 42.99C56.1 44.39 56.49 45.85 56.43 47.34C56.37 48.96 55.8 50.52 55.11 51.99C54.49 53.32 53.72 54.65 52.49 55.46C51.15 56.34 49.46 56.47 47.86 56.55C43.42 56.78 38.91 56.85 34.61 55.72C33.91 55.53 33.16 55.27 32.77 54.66C32.38 54.05 32.69 53.01 33.42 52.98C34.36 52.94 34.94 54.49 35.77 54.41H35.78ZM37.41 52.02C37.41 52.02 37.47 52.11 37.51 52.14C37.79 52.35 38.13 52.11 38.13 51.75C38.13 50.97 37.79 48.1 38.25 47.29C38.71 46.48 39.84 45.62 40.18 45.31C40.52 45 41.61 44.46 41.58 43.47C41.55 42.48 41.49 40.95 40.61 40.42C39.73 39.89 39.8 40.17 39.08 40.53C38.36 40.89 37.62 41.63 37.55 42.44C37.48 43.25 37.3 43.43 37.27 44.42C37.24 45.41 36.96 47.15 36.99 48.07C37.03 49.17 37.09 50.28 37.24 51.37C37.27 51.55 37.29 51.84 37.39 52.03L37.41 52.02Z" fill="#DE3D37"/>
<path d="M54.3 53.34C56.74 53.3 59.13 52.74 60.06 50.23C61.17 47.24 59.62 44.13 58.46 41.4C57.23 38.5 53.74 31.49 57.26 29.07C58.67 28.1 61.45 28.37 61.62 30.53C61.64 30.85 61.67 32.37 61.67 32.37" stroke="#DE3D37" stroke-width="2" stroke-miterlimit="10" stroke-linecap="round"/>
</g>
<path d="M75.5997 36V8.07031H80.9708L90.4434 29.2617L99.7208 8.07031H104.897V36H100.111V16.5469L92.5333 36H88.1192L80.3848 16.5469V36H75.5997ZM109.291 29.6133C109.291 25.5378 112.26 23.5 118.197 23.5C119.591 23.5 120.984 23.6302 122.377 23.8906V22.3477C122.377 20.5117 121.055 19.5938 118.412 19.5938C116.173 19.5938 113.686 19.9193 110.951 20.5703V16.4688C113.686 15.8177 116.173 15.4922 118.412 15.4922C124.506 15.4922 127.553 17.7448 127.553 22.25V36H124.545L122.709 34.1641C120.925 35.388 118.959 36 116.811 36C111.798 36 109.291 33.8711 109.291 29.6133ZM122.377 27.4062C121.075 27.1458 119.682 27.0156 118.197 27.0156C115.71 27.0156 114.467 27.862 114.467 29.5547C114.467 31.3776 115.509 32.2891 117.592 32.2891C119.311 32.2891 120.906 31.7552 122.377 30.6875V27.4062ZM145.443 20.8438C144.376 20.1406 143.035 19.7891 141.42 19.7891C138.204 19.7891 136.596 21.5924 136.596 25.1992C136.596 29.4831 138.269 31.625 141.615 31.625C142.969 31.625 144.246 31.4362 145.443 31.0586V20.8438ZM150.619 34.7695C147.481 35.5898 144.415 36 141.42 36C134.792 36 131.479 32.4453 131.479 25.3359C131.479 18.7734 134.721 15.4922 141.205 15.4922C142.585 15.4922 143.998 15.8177 145.443 16.4688V8.07031H150.619V34.7695ZM154.525 29.6133C154.525 25.5378 157.494 23.5 163.432 23.5C164.825 23.5 166.218 23.6302 167.611 23.8906V22.3477C167.611 20.5117 166.29 19.5938 163.647 19.5938C161.407 19.5938 158.92 19.9193 156.186 20.5703V16.4688C158.92 15.8177 161.407 15.4922 163.647 15.4922C169.74 15.4922 172.787 17.7448 172.787 22.25V36H169.779L167.943 34.1641C166.16 35.388 164.193 36 162.045 36C157.032 36 154.525 33.8711 154.525 29.6133ZM167.611 27.4062C166.309 27.1458 164.916 27.0156 163.432 27.0156C160.945 27.0156 159.701 27.862 159.701 29.5547C159.701 31.3776 160.743 32.2891 162.826 32.2891C164.545 32.2891 166.14 31.7552 167.611 30.6875V27.4062ZM177.69 36V15.4922H181.693L182.338 18.1094C184.135 16.3646 186.036 15.4922 188.041 15.4922V19.6719C186.114 19.6719 184.389 20.4727 182.865 22.0742V36H177.69ZM189.994 29.6133C189.994 25.5378 192.963 23.5 198.9 23.5C200.294 23.5 201.687 23.6302 203.08 23.8906V22.3477C203.08 20.5117 201.759 19.5938 199.115 19.5938C196.876 19.5938 194.389 19.9193 191.654 20.5703V16.4688C194.389 15.8177 196.876 15.4922 199.115 15.4922C205.209 15.4922 208.256 17.7448 208.256 22.25V36H205.248L203.412 34.1641C201.628 35.388 199.662 36 197.514 36C192.501 36 189.994 33.8711 189.994 29.6133ZM203.08 27.4062C201.778 27.1458 200.385 27.0156 198.9 27.0156C196.413 27.0156 195.17 27.862 195.17 29.5547C195.17 31.3776 196.212 32.2891 198.295 32.2891C200.014 32.2891 201.609 31.7552 203.08 30.6875V27.4062ZM240.248 8.07031L228.002 36H222.436L210.717 8.07031H216.869L225.522 29.457L234.154 8.07031H240.248ZM251.342 15.4922C257.566 15.4922 260.678 18.6693 260.678 25.0234C260.678 25.8698 260.619 26.7161 260.502 27.5625H246.889C246.889 30.4531 249.011 31.8984 253.256 31.8984C255.326 31.8984 257.397 31.7031 259.467 31.3125V35.4141C257.657 35.8047 255.456 36 252.865 36C245.43 36 241.713 32.5039 241.713 25.5117C241.713 18.832 244.923 15.4922 251.342 15.4922ZM246.889 23.9688H255.639V23.8125C255.639 20.974 254.206 19.5547 251.342 19.5547C248.607 19.5547 247.123 21.026 246.889 23.9688ZM264.272 12.1719H268.1L268.881 15.4922H274.037V19.5938H269.447V29.0273C269.447 30.9414 270.274 31.8984 271.928 31.8984H274.037V36H269.428C265.99 36 264.272 34.1576 264.272 30.4727V12.1719Z" fill="#1872D9"/>
<path d="M80.5469 59.6816H87.1915V49.75H83.0606C83.0606 55.252 82.2227 58.5625 80.5469 59.6816ZM76.17 64.3398V59.6816H77.7872C80.2188 59.6816 81.4346 56.3711 81.4346 49.75V48.4316H88.8174V59.6816H90.4434V64.3398H88.8174V61H77.7872V64.3398H76.17ZM96.3848 55.7266V57.0449H91.9903V55.7266H96.3848ZM100.208 59.1191C100.847 59.4355 101.559 59.5938 102.344 59.5938C104.436 59.5938 105.482 58.4424 105.482 56.1396C105.482 54.1299 104.441 53.125 102.361 53.125C101.541 53.125 100.823 53.1953 100.208 53.3359V59.1191ZM98.5821 52.1494C99.8067 51.8975 101.072 51.7715 102.379 51.7715C105.514 51.7715 107.081 53.2334 107.081 56.1572C107.081 59.3857 105.505 61 102.353 61C101.614 61 100.899 60.8535 100.208 60.5605V64.3398H98.5821V52.1494ZM113.857 61V48.4316H115.475V53.9688H119.034C119.233 50.2188 120.95 48.3438 124.185 48.3438C127.565 48.3438 129.256 50.4736 129.256 54.7334C129.256 58.9697 127.565 61.0879 124.185 61.0879C120.892 61.0879 119.172 59.1543 119.025 55.2871H115.475V61H113.857ZM124.185 59.7695C126.423 59.7695 127.542 58.0732 127.542 54.6807C127.542 51.335 126.423 49.6621 124.185 49.6621C121.882 49.6621 120.731 51.335 120.731 54.6807C120.731 58.0732 121.882 59.7695 124.185 59.7695ZM130.135 59.6816C131.523 59.6816 132.218 58.8906 132.218 57.3086V51.7715H139.249V61H137.623V53.0898H133.844V57.3086C133.844 59.7695 132.607 61 130.135 61V59.6816ZM148.486 61V53.8633L143.521 61H141.895V51.7715H143.433V58.9082L148.398 51.7715H150.024V61H148.486ZM152.231 58.2139C152.231 56.3213 153.479 55.375 155.975 55.375C156.777 55.375 157.58 55.4336 158.383 55.5508V54.6807C158.383 53.6201 157.554 53.0898 155.896 53.0898C154.946 53.0898 153.974 53.2363 152.978 53.5293V52.2109C153.974 51.918 154.946 51.7715 155.896 51.7715C158.638 51.7715 160.009 52.7266 160.009 54.6367V61H159.095L158.532 60.0859C157.612 60.6953 156.61 61 155.526 61C153.329 61 152.231 60.0713 152.231 58.2139ZM155.975 56.6934C154.563 56.6934 153.857 57.1914 153.857 58.1875C153.857 59.1836 154.413 59.6816 155.526 59.6816C156.651 59.6816 157.604 59.3828 158.383 58.7852V56.8691C157.58 56.752 156.777 56.6934 155.975 56.6934ZM162.654 61V51.7715H164.28V55.6387H169.158V51.7715H170.784V61H169.158V56.957H164.28V61H162.654ZM172.99 58.2139C172.99 56.3213 174.238 55.375 176.734 55.375C177.537 55.375 178.34 55.4336 179.143 55.5508V54.6807C179.143 53.6201 178.314 53.0898 176.655 53.0898C175.706 53.0898 174.733 53.2363 173.737 53.5293V52.2109C174.733 51.918 175.706 51.7715 176.655 51.7715C179.398 51.7715 180.769 52.7266 180.769 54.6367V61H179.855L179.292 60.0859C178.372 60.6953 177.37 61 176.286 61C174.089 61 172.99 60.0713 172.99 58.2139ZM176.734 56.6934C175.322 56.6934 174.616 57.1914 174.616 58.1875C174.616 59.1836 175.173 59.6816 176.286 59.6816C177.411 59.6816 178.363 59.3828 179.143 58.7852V56.8691C178.34 56.752 177.537 56.6934 176.734 56.6934ZM197.477 60.5605C196.393 60.9121 195.221 61.0879 193.961 61.0879C189.566 61.0879 187.369 58.9053 187.369 54.54C187.369 50.4092 189.566 48.3438 193.961 48.3438C195.221 48.3438 196.393 48.5195 197.477 48.8711V50.2773C196.393 49.8672 195.279 49.6621 194.137 49.6621C190.709 49.6621 188.995 51.2881 188.995 54.54C188.995 58.0264 190.709 59.7695 194.137 59.7695C195.279 59.7695 196.393 59.5645 197.477 59.1543V60.5605ZM199.551 56.3857C199.551 53.251 201.074 51.6836 204.121 51.6836C207.168 51.6836 208.691 53.251 208.691 56.3857C208.691 59.5205 207.168 61.0879 204.121 61.0879C201.086 61.0879 199.563 59.5205 199.551 56.3857ZM201.177 56.3506C201.177 58.6299 202.158 59.7695 204.121 59.7695C206.084 59.7695 207.065 58.6299 207.065 56.3506C207.065 54.1182 206.084 53.002 204.121 53.002C202.158 53.002 201.177 54.1182 201.177 56.3506ZM217.173 61L215.881 58.8379C215.014 57.3906 214.176 56.667 213.367 56.667V55.5859C214.305 55.5859 215.002 54.9502 215.459 53.6787C215.922 52.4072 216.704 51.7715 217.806 51.7715H218.746V53.1777H218.052C217.419 53.1777 216.953 53.6084 216.654 54.4697C216.356 55.3252 215.84 55.8965 215.107 56.1836C215.799 56.3066 216.628 57.1387 217.595 58.6797L219.054 61H217.173ZM212.515 51.7715V61H210.889V51.7715H212.515ZM220.152 56.3857C220.152 53.251 221.676 51.6836 224.723 51.6836C227.77 51.6836 229.293 53.251 229.293 56.3857C229.293 59.5205 227.77 61.0879 224.723 61.0879C221.688 61.0879 220.164 59.5205 220.152 56.3857ZM221.778 56.3506C221.778 58.6299 222.76 59.7695 224.723 59.7695C226.686 59.7695 227.667 58.6299 227.667 56.3506C227.667 54.1182 226.686 53.002 224.723 53.002C222.76 53.002 221.778 54.1182 221.778 56.3506ZM230.172 59.6816C231.561 59.6816 232.255 58.8906 232.255 57.3086V51.7715H239.286V61H237.66V53.0898H233.881V57.3086C233.881 59.7695 232.645 61 230.172 61V59.6816ZM241.492 56.3857C241.492 53.251 243.016 51.6836 246.063 51.6836C249.109 51.6836 250.633 53.251 250.633 56.3857C250.633 59.5205 249.109 61.0879 246.063 61.0879C243.027 61.0879 241.504 59.5205 241.492 56.3857ZM243.118 56.3506C243.118 58.6299 244.1 59.7695 246.063 59.7695C248.025 59.7695 249.007 58.6299 249.007 56.3506C249.007 54.1182 248.025 53.002 246.063 53.002C244.1 53.002 243.118 54.1182 243.118 56.3506ZM257.734 59.6816C258.648 59.6816 259.106 59.2129 259.106 58.2754C259.106 57.3965 258.394 56.957 256.97 56.957H256.267V55.8936C258.083 55.6885 258.991 55.0762 258.991 54.0566C258.991 53.4121 258.616 53.0898 257.866 53.0898H254.456V59.6816H257.734ZM252.83 61V51.7715H258.016C259.82 51.7715 260.723 52.542 260.723 54.083C260.723 55.0381 260.148 55.7471 259 56.21C260.254 56.5205 260.881 57.2002 260.881 58.249C260.881 60.083 259.864 61 257.831 61H252.83ZM262.639 58.2139C262.639 56.3213 263.887 55.375 266.383 55.375C267.186 55.375 267.988 55.4336 268.791 55.5508V54.6807C268.791 53.6201 267.962 53.0898 266.304 53.0898C265.355 53.0898 264.382 53.2363 263.386 53.5293V52.2109C264.382 51.918 265.355 51.7715 266.304 51.7715C269.046 51.7715 270.417 52.7266 270.417 54.6367V61H269.503L268.94 60.0859C268.021 60.6953 267.019 61 265.935 61C263.737 61 262.639 60.0713 262.639 58.2139ZM266.383 56.6934C264.971 56.6934 264.265 57.1914 264.265 58.1875C264.265 59.1836 264.821 59.6816 265.935 59.6816C267.06 59.6816 268.012 59.3828 268.791 58.7852V56.8691C267.988 56.752 267.186 56.6934 266.383 56.6934Z" fill="#1872D9"/>
<defs>
<clipPath id="clip0_14_2">
<rect width="62.67" height="57.35" fill="white"/>
</clipPath>
</defs>
</svg>
