<svg width="70" height="70" viewBox="0 0 70 70" fill="none" xmlns="http://www.w3.org/2000/svg">
<path d="M53.3694 46.0241C55.5709 45.7845 57.0902 43.1524 56.7629 40.1453C56.4356 37.1381 54.3856 34.8946 52.1841 35.1342C49.9826 35.3739 48.4632 38.0059 48.7905 41.013C49.1179 44.0202 51.1679 46.2637 53.3694 46.0241Z" fill="#C43075"/>
<path d="M25.6021 18.7791C27.8837 18.642 29.5882 16.1143 29.4091 13.1334C29.23 10.1525 27.2352 7.84703 24.9535 7.98411C22.6719 8.12118 20.9674 10.6488 21.1465 13.6298C21.3256 16.6107 23.3204 18.9162 25.6021 18.7791Z" fill="#C43075"/>
<path d="M38.7826 17.1577C39.1234 14.3284 37.56 11.8132 35.2907 11.5398C33.0213 11.2664 30.9054 13.3384 30.5645 16.1677C30.2237 18.997 31.7871 21.5123 34.0564 21.7856C36.3258 22.059 38.4417 19.987 38.7826 17.1577Z" fill="#C43075"/>
<path d="M16.7749 20.7963C19.0374 20.2639 20.2797 17.3166 19.5496 14.2131C18.8194 11.1097 16.3934 9.02535 14.1308 9.55766C11.8682 10.09 10.626 13.0373 11.3561 16.1408C12.0862 19.2442 14.5123 21.3286 16.7749 20.7963Z" fill="#C43075"/>
<path d="M49.0195 50.953C57.1411 46.4111 66.4344 52.8181 65.2143 57.7147C63.9028 62.9606 58.9094 60.1334 55.1738 61.4986C52.8787 62.3371 49.3742 67.0456 45.3376 64.17C41.817 61.6599 43.7198 53.9146 49.0195 50.953ZM21.3384 21.955C27.1434 20.4339 35.2381 24.9435 34.3136 30.0873C33.4428 34.9302 26.7134 32.8178 23.9829 33.8337C20.4247 35.1559 15.9634 39.0528 13.4265 35.1559C10.567 30.7538 16.2429 23.2934 21.3384 21.955Z" fill="#C43075"/>
<path d="M10.4411 26.8657C12.4232 25.7213 12.8328 22.72 11.3559 20.162C9.87909 17.6041 7.07508 16.4581 5.09298 17.6025C3.11089 18.7469 2.7013 21.7482 4.17814 24.3061C5.65497 26.8641 8.45899 28.01 10.4411 26.8657Z" fill="#C43075"/>
<path d="M46.0701 49.2449C48.1294 48.0561 48.5726 44.9686 47.0601 42.349C45.5477 39.7293 42.6523 38.5694 40.593 39.7583C38.5338 40.9472 38.0906 44.0347 39.603 46.6543C41.1155 49.274 44.0109 50.4338 46.0701 49.2449Z" fill="#C43075"/>
<path d="M40.1268 57.0014C41.933 55.72 41.9783 52.6813 40.2281 50.2142C38.4778 47.7471 35.5948 46.7858 33.7886 48.0671C31.9824 49.3485 31.9371 52.3872 33.6874 54.8543C35.4376 57.3215 38.3207 58.2827 40.1268 57.0014Z" fill="#C43075"/>
<path d="M62.9848 47.4062C65.1862 47.2703 66.8305 44.8879 66.6574 42.0851C66.4844 39.2822 64.5595 37.1202 62.3581 37.2561C60.1567 37.392 58.5124 39.7744 58.6854 42.5773C58.8585 45.3801 60.7833 47.5421 62.9848 47.4062Z" fill="#C43075"/>
</svg>
