<svg width="35" height="35" viewBox="0 0 35 35" fill="none" xmlns="http://www.w3.org/2000/svg">
<path d="M31.8369 17.982C32.2371 16.993 32.3357 15.9077 32.1203 14.8627C31.9049 13.8178 31.3853 12.8599 30.6266 12.1097C29.6707 11.1736 28.5186 10.4618 27.2537 10.0258C25.231 9.33373 23.1542 8.81153 21.0448 8.46462C18.9419 8.07069 16.8102 7.85033 14.6712 7.80578C13.3332 7.78248 12.0061 8.05131 10.7826 8.59352C9.81384 9.04019 8.9986 9.76313 8.43928 10.6715C7.87996 11.58 7.60148 12.6334 7.63882 13.6995C7.63965 13.8401 7.67466 13.9784 7.74083 14.1024C7.80701 14.2264 7.90236 14.3324 8.01866 14.4114C8.13496 14.4903 8.26872 14.5398 8.4084 14.5555C8.54808 14.5712 8.68949 14.5527 8.82043 14.5016L11.8497 13.4203C12.0828 13.3216 12.2696 13.1378 12.372 12.9064C12.4744 12.6749 12.4848 12.4131 12.4011 12.1742L12.1361 11.458C12.0995 11.3582 12.0873 11.2509 12.1007 11.1454C12.114 11.0398 12.1524 10.939 12.2127 10.8513C12.2731 10.7637 12.3535 10.6917 12.4473 10.6416C12.5411 10.5914 12.6456 10.5644 12.752 10.5629C15.3651 10.5077 17.9777 10.6899 20.5578 11.1071C23.1264 11.5947 25.6455 12.3138 28.0844 13.2555C28.184 13.2933 28.273 13.3545 28.3441 13.4338C28.4151 13.5132 28.4661 13.6084 28.4928 13.7115C28.5194 13.8146 28.521 13.9226 28.4973 14.0265C28.4736 14.1303 28.4253 14.2269 28.3565 14.3083L27.8552 14.9098C27.7716 15.0098 27.7085 15.1253 27.6697 15.2497C27.6309 15.3742 27.6171 15.5051 27.629 15.6349C27.641 15.7647 27.6786 15.8908 27.7395 16.006C27.8004 16.1213 27.8836 16.2233 27.9841 16.3063L30.4548 18.3544C30.5619 18.4462 30.6897 18.5105 30.8273 18.5416C30.9649 18.5728 31.108 18.5699 31.2442 18.5332C31.3804 18.4965 31.5056 18.4271 31.6089 18.3311C31.7122 18.235 31.7904 18.1152 31.8369 17.982Z" fill="#FF6242"/>
<path opacity="0.15" d="M9.55078 32.584C9.55078 32.725 9.81937 32.8647 10.3412 32.995C10.863 33.1254 11.6279 33.2438 12.5922 33.3435C13.5564 33.4433 14.7011 33.5224 15.9609 33.5764C17.2208 33.6304 18.5711 33.6582 19.9347 33.6582C21.2983 33.6582 22.6486 33.6304 23.9084 33.5764C25.1683 33.5224 26.313 33.4433 27.2772 33.3435C28.2415 33.2438 29.0063 33.1254 29.5282 32.995C30.05 32.8647 30.3186 32.725 30.3186 32.584C30.3186 32.2991 29.2246 32.0258 27.2772 31.8244C25.3299 31.6229 22.6887 31.5098 19.9347 31.5098C17.1807 31.5098 14.5395 31.6229 12.5922 31.8244C10.6448 32.0258 9.55078 32.2991 9.55078 32.584Z" fill="#45413C"/>
<path d="M9.80151 25.5372H29.8532V29.8842C29.8532 30.0608 29.783 30.2302 29.6581 30.3551C29.5332 30.48 29.3638 30.5502 29.1872 30.5502H10.4675C10.2909 30.5502 10.1215 30.48 9.99658 30.3551C9.87168 30.2302 9.80151 30.0608 9.80151 29.8842V25.5372Z" fill="#FF6242"/>
<path d="M9.80151 25.5372H29.8532V29.8842C29.8532 30.0608 29.783 30.2302 29.6581 30.3551C29.5332 30.48 29.3638 30.5502 29.1872 30.5502H10.4675C10.2909 30.5502 10.1215 30.48 9.99658 30.3551C9.87168 30.2302 9.80151 30.0608 9.80151 29.8842V25.5372Z" stroke="#45413C" stroke-width="0.390617" stroke-linecap="round" stroke-linejoin="round"/>
<path d="M29.8532 25.5373H9.80151L12.666 16.6429C12.71 16.5089 12.7955 16.3922 12.91 16.3099C13.0246 16.2275 13.1623 16.1836 13.3034 16.1846H26.3585C26.4996 16.1836 26.6373 16.2275 26.7519 16.3099C26.8664 16.3922 26.9518 16.5089 26.9958 16.6429L29.8532 25.5373Z" fill="#FF6242"/>
<path d="M12.2077 18.8558H27.4398C27.5323 18.8554 27.6242 18.8699 27.712 18.8987L26.9958 16.6429C26.9518 16.5089 26.8664 16.3922 26.7519 16.3099C26.6373 16.2275 26.4996 16.1836 26.3585 16.1846H13.2962C13.1552 16.1836 13.0174 16.2275 12.9029 16.3099C12.7883 16.3922 12.7029 16.5089 12.6589 16.6429L11.9427 18.8987C12.0283 18.8706 12.1177 18.8561 12.2077 18.8558Z" fill="#FF866E"/>
<path d="M29.8532 25.5373H9.80151L12.666 16.6429C12.71 16.5089 12.7955 16.3922 12.91 16.3099C13.0246 16.2275 13.1623 16.1836 13.3034 16.1846H26.3585C26.4996 16.1836 26.6373 16.2275 26.7519 16.3099C26.8664 16.3922 26.9518 16.5089 26.9958 16.6429L29.8532 25.5373Z" stroke="#45413C" stroke-width="0.390617" stroke-linecap="round" stroke-linejoin="round"/>
<path d="M13.8118 14.5088H16.8195V16.1774H13.8118V14.5088ZM22.835 14.5088H25.8428V16.1774H22.835V14.5088Z" fill="#E04122" stroke="#45413C" stroke-width="0.390617" stroke-linecap="round" stroke-linejoin="round"/>
<path d="M10.5677 9.86824C11.7899 9.30886 13.1194 9.02292 14.4634 9.03036C16.6024 9.07492 18.7341 9.29527 20.837 9.6892C22.9462 10.0371 25.023 10.5593 27.0459 11.2504C28.3124 11.6969 29.4643 12.4184 30.4189 13.363C30.9578 13.8953 31.3786 14.5352 31.6538 15.241C31.9289 15.9467 32.0523 16.7026 32.0158 17.4592C32.2877 16.5251 32.3021 15.5349 32.0575 14.5933C31.813 13.6516 31.3186 12.7935 30.6265 12.1097C29.6706 11.1736 28.5185 10.4618 27.2536 10.0258C25.2309 9.33373 23.1541 8.81153 21.0447 8.46462C18.9418 8.07069 16.8101 7.85033 14.6711 7.80578C13.3331 7.78248 12.006 8.05131 10.7825 8.59352C9.8838 9.00612 9.11583 9.65792 8.56263 10.4776C8.00942 11.2973 7.69227 12.2534 7.64587 13.2412C7.86395 12.503 8.23753 11.8201 8.7415 11.2383C9.24548 10.6565 9.86816 10.1894 10.5677 9.86824Z" fill="#FF866E"/>
<path d="M31.8369 17.982C32.2371 16.993 32.3357 15.9077 32.1203 14.8627C31.9049 13.8178 31.3853 12.8599 30.6266 12.1097C29.6707 11.1736 28.5186 10.4618 27.2537 10.0258C25.231 9.33373 23.1542 8.81153 21.0448 8.46462C18.9419 8.07069 16.8102 7.85033 14.6712 7.80578C13.3332 7.78248 12.0061 8.05131 10.7826 8.59352C9.81384 9.04019 8.9986 9.76313 8.43928 10.6715C7.87996 11.58 7.60148 12.6334 7.63882 13.6995C7.63965 13.8401 7.67466 13.9784 7.74083 14.1024C7.80701 14.2264 7.90236 14.3324 8.01866 14.4114C8.13496 14.4903 8.26872 14.5398 8.4084 14.5555C8.54808 14.5712 8.68949 14.5527 8.82043 14.5016L11.8497 13.4203C12.0828 13.3216 12.2696 13.1378 12.372 12.9064C12.4744 12.6749 12.4848 12.4131 12.4011 12.1742L12.1361 11.458C12.0995 11.3582 12.0873 11.2509 12.1007 11.1454C12.114 11.0398 12.1524 10.939 12.2127 10.8513C12.2731 10.7637 12.3535 10.6917 12.4473 10.6416C12.5411 10.5914 12.6456 10.5644 12.752 10.5629C15.3651 10.5077 17.9777 10.6899 20.5578 11.1071C23.1264 11.5947 25.6455 12.3138 28.0844 13.2555C28.184 13.2933 28.273 13.3545 28.3441 13.4338C28.4151 13.5132 28.4661 13.6084 28.4928 13.7115C28.5195 13.8146 28.521 13.9226 28.4973 14.0265C28.4736 14.1303 28.4253 14.2269 28.3565 14.3083L27.8552 14.9098C27.7716 15.0098 27.7085 15.1253 27.6697 15.2497C27.6309 15.3742 27.6171 15.5051 27.629 15.6349C27.641 15.7647 27.6786 15.8908 27.7395 16.006C27.8004 16.1213 27.8836 16.2233 27.9841 16.3063L30.4548 18.3544C30.5619 18.4462 30.6897 18.5105 30.8273 18.5416C30.9649 18.5728 31.108 18.5699 31.2442 18.5332C31.3804 18.4965 31.5056 18.4271 31.6089 18.3311C31.7122 18.235 31.7904 18.1152 31.8369 17.982Z" stroke="#45413C" stroke-width="0.390617" stroke-linecap="round" stroke-linejoin="round"/>
<path d="M10.4675 30.5573H29.1872V31.5599C29.1872 31.7365 29.117 31.9059 28.9921 32.0308C28.8672 32.1557 28.6978 32.2259 28.5212 32.2259H11.1335C10.9569 32.2259 10.7875 32.1557 10.6626 32.0308C10.5377 31.9059 10.4675 31.7365 10.4675 31.5599V30.5573Z" fill="#8CA4B8" stroke="#45413C" stroke-width="0.390617" stroke-linecap="round" stroke-linejoin="round"/>
<path d="M16.8196 23.5321C16.8196 23.7094 16.7497 23.8795 16.625 24.0056C16.5003 24.1316 16.3309 24.2034 16.1536 24.2053H13.8333C13.6677 24.1881 13.5143 24.1102 13.4027 23.9865C13.2912 23.8628 13.2295 23.7022 13.2295 23.5357C13.2295 23.3691 13.2912 23.2085 13.4027 23.0849C13.5143 22.9612 13.6677 22.8832 13.8333 22.8661H16.1751C16.348 22.8717 16.5119 22.9443 16.6322 23.0686C16.7525 23.1929 16.8197 23.3591 16.8196 23.5321ZM26.516 23.5321C26.516 23.7106 26.4451 23.8818 26.3188 24.0081C26.1926 24.1343 26.0214 24.2053 25.8428 24.2053H23.5083C23.4145 24.215 23.3198 24.2049 23.2302 24.1756C23.1406 24.1464 23.0581 24.0987 22.9881 24.0356C22.9181 23.9725 22.8621 23.8953 22.8238 23.8092C22.7855 23.7231 22.7658 23.6299 22.7658 23.5357C22.7658 23.4414 22.7855 23.3482 22.8238 23.2621C22.8621 23.176 22.9181 23.0989 22.9881 23.0358C23.0581 22.9726 23.1406 22.9249 23.2302 22.8957C23.3198 22.8665 23.4145 22.8564 23.5083 22.8661H25.8428C26.0201 22.8661 26.1903 22.936 26.3163 23.0607C26.4424 23.1854 26.5141 23.3548 26.516 23.5321ZM16.8196 20.8609C16.8196 21.0376 16.7494 21.207 16.6245 21.3319C16.4996 21.4568 16.3302 21.5269 16.1536 21.5269H14.4778C14.3012 21.5269 14.1318 21.4568 14.0069 21.3319C13.882 21.207 13.8118 21.0376 13.8118 20.8609C13.8118 20.6843 13.882 20.5149 14.0069 20.39C14.1318 20.2651 14.3012 20.1949 14.4778 20.1949H16.1536C16.3302 20.1949 16.4996 20.2651 16.6245 20.39C16.7494 20.5149 16.8196 20.6843 16.8196 20.8609ZM25.8428 20.8609C25.8428 21.0376 25.7727 21.207 25.6478 21.3319C25.5229 21.4568 25.3535 21.5269 25.1768 21.5269H23.5083C23.3316 21.5269 23.1622 21.4568 23.0373 21.3319C22.9124 21.207 22.8423 21.0376 22.8423 20.8609C22.8423 20.6843 22.9124 20.5149 23.0373 20.39C23.1622 20.2651 23.3316 20.1949 23.5083 20.1949H25.1768C25.3535 20.1949 25.5229 20.2651 25.6478 20.39C25.7727 20.5149 25.8428 20.6843 25.8428 20.8609ZM17.1562 18.1897C17.1543 18.367 17.0825 18.5364 16.9565 18.6611C16.8305 18.7858 16.6603 18.8558 16.483 18.8557H15.151C15.0573 18.8655 14.9625 18.8554 14.8729 18.8261C14.7833 18.7969 14.7008 18.7492 14.6308 18.6861C14.5608 18.623 14.5049 18.5458 14.4666 18.4597C14.4283 18.3736 14.4085 18.2804 14.4085 18.1862C14.4085 18.0919 14.4283 17.9987 14.4666 17.9126C14.5049 17.8265 14.5608 17.7494 14.6308 17.6863C14.7008 17.6231 14.7833 17.5754 14.8729 17.5462C14.9625 17.517 15.0573 17.5069 15.151 17.5166H16.483C16.6615 17.5166 16.8328 17.5875 16.959 17.7137C17.0852 17.84 17.1562 18.0112 17.1562 18.1897ZM21.1665 18.1897C21.1646 18.367 21.0929 18.5364 20.9668 18.6611C20.8408 18.7858 20.6706 18.8558 20.4933 18.8557H19.1613C19.0676 18.8655 18.9728 18.8554 18.8832 18.8261C18.7936 18.7969 18.7112 18.7492 18.6412 18.6861C18.5712 18.623 18.5152 18.5458 18.4769 18.4597C18.4386 18.3736 18.4188 18.2804 18.4188 18.1862C18.4188 18.0919 18.4386 17.9987 18.4769 17.9126C18.5152 17.8265 18.5712 17.7494 18.6412 17.6863C18.7112 17.6231 18.7936 17.5754 18.8832 17.5462C18.9728 17.517 19.0676 17.5069 19.1613 17.5166H20.4933C20.6719 17.5166 20.8431 17.5875 20.9693 17.7137C21.0956 17.84 21.1665 18.0112 21.1665 18.1897Z" fill="#FFF5E3" stroke="#45413C" stroke-width="0.390617" stroke-linecap="round" stroke-linejoin="round"/>
<path d="M9.78714 1.82609C9.82022 1.80853 9.8571 1.79935 9.89456 1.79935C9.93201 1.79935 9.96889 1.80853 10.002 1.82609C10.0337 1.84491 10.0606 1.87091 10.0805 1.902C10.1004 1.93309 10.1128 1.9684 10.1166 2.00512L10.4102 5.19191C10.4139 5.245 10.4007 5.29791 10.3724 5.34298C10.344 5.38804 10.3021 5.42292 10.2526 5.44255C10.2023 5.45965 10.1477 5.45981 10.0973 5.443C10.0469 5.42619 10.0033 5.39333 9.97333 5.34946L8.23313 2.72841C8.21933 2.69679 8.21221 2.66266 8.21221 2.62816C8.21221 2.59365 8.21933 2.55952 8.23313 2.5279C8.24348 2.49332 8.26184 2.46168 8.28673 2.43555C8.31162 2.40941 8.34233 2.38953 8.37636 2.37751L9.78714 1.82609ZM15.3515 1.78312C15.3876 1.79188 15.421 1.80959 15.4485 1.83461C15.4761 1.85964 15.4969 1.89118 15.509 1.92635C15.5266 1.95814 15.5358 1.99387 15.5358 2.03019C15.5358 2.0665 15.5266 2.10223 15.509 2.13402L13.8333 4.85533C13.8036 4.89849 13.7607 4.93091 13.7111 4.94779C13.6615 4.96467 13.6078 4.9651 13.558 4.94901C13.5081 4.93293 13.4648 4.90119 13.4344 4.85851C13.404 4.81582 13.3882 4.76448 13.3893 4.7121L13.6041 1.56112C13.6076 1.52496 13.6182 1.48986 13.6354 1.45789C13.6526 1.42591 13.6761 1.3977 13.7044 1.37493C13.7371 1.36052 13.7725 1.35309 13.8082 1.35309C13.844 1.35309 13.8793 1.36052 13.9121 1.37493L15.3515 1.78312ZM4.3517 5.33513C4.32654 5.36179 4.30719 5.39337 4.29486 5.42788C4.28254 5.4624 4.27751 5.49909 4.28009 5.53565C4.2836 5.57522 4.29648 5.61339 4.31764 5.64701C4.33881 5.68063 4.36766 5.70873 4.40183 5.72901L7.18042 7.31166C7.22756 7.33669 7.28146 7.34602 7.33427 7.33829C7.38708 7.33057 7.43604 7.30618 7.47403 7.26869C7.50714 7.22692 7.52516 7.17518 7.52516 7.12188C7.52516 7.06858 7.50714 7.01685 7.47403 6.97508L5.81261 4.29674C5.79372 4.26721 5.7685 4.24225 5.73877 4.22367C5.70905 4.20509 5.67556 4.19336 5.64074 4.18932C5.60574 4.18496 5.57021 4.18848 5.53675 4.19963C5.50329 4.21079 5.47276 4.22929 5.44738 4.25378L4.3517 5.33513ZM2.01711 10.3839C2.01249 10.4216 2.01654 10.46 2.02895 10.496C2.04136 10.5319 2.0618 10.5646 2.08872 10.5915C2.11456 10.6175 2.14625 10.637 2.18114 10.6482C2.21603 10.6594 2.2531 10.6621 2.28924 10.656L5.4617 10.2335C5.51421 10.2262 5.5629 10.202 5.60038 10.1645C5.63786 10.127 5.66209 10.0783 5.66938 10.0258C5.67314 9.9727 5.65989 9.91979 5.63157 9.87473C5.60324 9.82967 5.5613 9.79479 5.51183 9.77515L2.55421 8.67231C2.52188 8.65649 2.48636 8.64827 2.45037 8.64827C2.41438 8.64827 2.37886 8.65649 2.34653 8.67231C2.31493 8.68953 2.28799 8.71417 2.26803 8.74411C2.24807 8.77405 2.23569 8.80839 2.23195 8.84418L2.01711 10.3839Z" fill="white" stroke="#45413C" stroke-width="0.390617" stroke-linejoin="round"/>
<path d="M25.1768 18.1897C25.1768 18.3664 25.1066 18.5358 24.9817 18.6607C24.8568 18.7856 24.6874 18.8557 24.5108 18.8557H23.143C23.0492 18.8655 22.9545 18.8554 22.8649 18.8261C22.7753 18.7969 22.6928 18.7492 22.6228 18.6861C22.5528 18.623 22.4969 18.5458 22.4586 18.4597C22.4203 18.3736 22.4005 18.2804 22.4005 18.1862C22.4005 18.0919 22.4203 17.9987 22.4586 17.9126C22.4969 17.8265 22.5528 17.7494 22.6228 17.6863C22.6928 17.6231 22.7753 17.5754 22.8649 17.5462C22.9545 17.517 23.0492 17.5069 23.143 17.5166H24.4821C24.5723 17.5137 24.6622 17.529 24.7463 17.5615C24.8305 17.5941 24.9073 17.6432 24.9721 17.706C25.0369 17.7688 25.0884 17.844 25.1236 17.9271C25.1587 18.0102 25.1768 18.0995 25.1768 18.1897ZM21.4959 20.8609C21.4968 20.9486 21.4803 21.0357 21.4471 21.1169C21.414 21.1982 21.365 21.272 21.3029 21.334C21.2409 21.396 21.1671 21.445 21.0859 21.4782C21.0046 21.5113 20.9176 21.5279 20.8299 21.5269H18.8462C18.6695 21.5269 18.5001 21.4568 18.3752 21.3319C18.2503 21.207 18.1802 21.0376 18.1802 20.8609C18.1802 20.6843 18.2503 20.5149 18.3752 20.39C18.5001 20.2651 18.6695 20.1949 18.8462 20.1949H20.8513C21.0248 20.1987 21.1898 20.2707 21.3105 20.3954C21.4312 20.5201 21.4978 20.6874 21.4959 20.8609ZM21.4959 23.5321C21.4968 23.6202 21.4803 23.7075 21.4472 23.7892C21.4142 23.8708 21.3653 23.9451 21.3033 24.0077C21.2414 24.0703 21.1677 24.12 21.0864 24.1539C21.0051 24.1878 20.9179 24.2053 20.8299 24.2053H18.8462C18.6805 24.1881 18.5271 24.1102 18.4156 23.9865C18.3041 23.8628 18.2424 23.7022 18.2424 23.5357C18.2424 23.3691 18.3041 23.2085 18.4156 23.0849C18.5271 22.9612 18.6805 22.8832 18.8462 22.8661H20.8513C21.0242 22.8717 21.1882 22.9443 21.3085 23.0686C21.4287 23.1929 21.496 23.3591 21.4959 23.5321Z" fill="#FFF5E3" stroke="#45413C" stroke-width="0.390617" stroke-linecap="round" stroke-linejoin="round"/>
</svg>
