<svg width="35" height="35" viewBox="0 0 35 35" fill="none" xmlns="http://www.w3.org/2000/svg">
<path d="M17.2275 3.36444C20.4109 3.36449 23.468 4.58945 25.7685 6.7785L25.9882 6.99335C28.1208 9.12571 29.3985 11.9574 29.5927 14.9533L29.6171 15.5549C29.6691 18.7686 28.4698 21.8765 26.2734 24.2228L25.9824 24.5236L19.912 30.593C19.2734 31.2312 18.4293 31.6203 17.5331 31.6926L17.3525 31.7023C16.45 31.732 15.5689 31.4387 14.8652 30.8791L14.7265 30.7639L14.5449 30.593L8.46576 24.5158C6.14234 22.1922 4.8369 19.041 4.83685 15.7551C4.83685 12.4689 6.1421 9.31701 8.46576 6.99335C10.7894 4.66969 13.9413 3.36444 17.2275 3.36444ZM17.2275 10.9582C16.6764 10.9582 16.13 11.0533 15.6122 11.2385L15.3915 11.3234C14.8825 11.5343 14.4142 11.8312 14.0068 12.2004L13.8359 12.3635C13.4462 12.7531 13.1267 13.2062 12.8915 13.7033L12.7958 13.9191C12.5548 14.5011 12.4306 15.1251 12.4306 15.7551C12.4306 16.3062 12.5257 16.8525 12.7109 17.3703L12.7958 17.591C13.0067 18.1 13.3036 18.5683 13.6728 18.9758L13.8359 19.1467C14.2255 19.5363 14.6787 19.8558 15.1757 20.091L15.3915 20.1867C15.9735 20.4278 16.5976 20.5519 17.2275 20.5519C18.4202 20.5519 19.5673 20.1076 20.4472 19.3107L20.6191 19.1467C21.5186 18.2471 22.0243 17.0272 22.0244 15.7551C22.0244 14.5624 21.5799 13.4153 20.7831 12.5353L20.6191 12.3635C19.7195 11.4639 18.4996 10.9582 17.2275 10.9582Z" fill="#FF6242" stroke="black"/>
</svg>
